<?xml version="1.0" encoding="utf-8" standalone="no"?>
<!DOCTYPE svg PUBLIC "-//W3C//DTD SVG 1.1//EN"
  "http://www.w3.org/Graphics/SVG/1.1/DTD/svg11.dtd">
<svg xmlns:xlink="http://www.w3.org/1999/xlink" width="711.665625pt" height="494.674375pt" viewBox="0 0 711.665625 494.674375" xmlns="http://www.w3.org/2000/svg" version="1.1">
 <metadata>
  <rdf:RDF xmlns:dc="http://purl.org/dc/elements/1.1/" xmlns:cc="http://creativecommons.org/ns#" xmlns:rdf="http://www.w3.org/1999/02/22-rdf-syntax-ns#">
   <cc:Work>
    <dc:type rdf:resource="http://purl.org/dc/dcmitype/StillImage"/>
    <dc:date>2025-02-15T13:27:21.330314</dc:date>
    <dc:format>image/svg+xml</dc:format>
    <dc:creator>
     <cc:Agent>
      <dc:title>Matplotlib v3.10.0, https://matplotlib.org/</dc:title>
     </cc:Agent>
    </dc:creator>
   </cc:Work>
  </rdf:RDF>
 </metadata>
 <defs>
  <style type="text/css">*{stroke-linejoin: round; stroke-linecap: butt}</style>
 </defs>
 <g id="figure_1">
  <g id="patch_1">
   <path d="M 0 494.674375 
L 711.665625 494.674375 
L 711.665625 0 
L 0 0 
z
" style="fill: #ffffff"/>
  </g>
  <g id="axes_1">
   <g id="patch_2">
    <path d="M 34.240625 457.118125 
L 362.203125 457.118125 
L 362.203125 22.318125 
L 34.240625 22.318125 
z
" style="fill: #ffffff"/>
   </g>
   <g id="PathCollection_1">
    <defs>
     <path id="mb35ae04fef" d="M 0 3 
C 0.795609 3 1.55874 2.683901 2.12132 2.12132 
C 2.683901 1.55874 3 0.795609 3 0 
C 3 -0.795609 2.683901 -1.55874 2.12132 -2.12132 
C 1.55874 -2.683901 0.795609 -3 0 -3 
C -0.795609 -3 -1.55874 -2.683901 -2.12132 -2.12132 
C -2.683901 -1.55874 -3 -0.795609 -3 0 
C -3 0.795609 -2.683901 1.55874 -2.12132 2.12132 
C -1.55874 2.683901 -0.795609 3 0 3 
z
" style="stroke: #ffffff; stroke-opacity: 0.5; stroke-width: 0.48"/>
    </defs>
    <g clip-path="url(#pa309da7af8)">
     <use xlink:href="#mb35ae04fef" x="96.922024" y="369.77919" style="fill: #1f77b4; fill-opacity: 0.5; stroke: #ffffff; stroke-opacity: 0.5; stroke-width: 0.48"/>
     <use xlink:href="#mb35ae04fef" x="111.419454" y="366.015503" style="fill: #1f77b4; fill-opacity: 0.5; stroke: #ffffff; stroke-opacity: 0.5; stroke-width: 0.48"/>
     <use xlink:href="#mb35ae04fef" x="105.581908" y="366.015503" style="fill: #1f77b4; fill-opacity: 0.5; stroke: #ffffff; stroke-opacity: 0.5; stroke-width: 0.48"/>
     <use xlink:href="#mb35ae04fef" x="107.405605" y="385.176094" style="fill: #1f77b4; fill-opacity: 0.5; stroke: #ffffff; stroke-opacity: 0.5; stroke-width: 0.48"/>
     <use xlink:href="#mb35ae04fef" x="85.051919" y="377.306565" style="fill: #1f77b4; fill-opacity: 0.5; stroke: #ffffff; stroke-opacity: 0.5; stroke-width: 0.48"/>
     <use xlink:href="#mb35ae04fef" x="59.959472" y="376.02349" style="fill: #1f77b4; fill-opacity: 0.5; stroke: #ffffff; stroke-opacity: 0.5; stroke-width: 0.48"/>
     <use xlink:href="#mb35ae04fef" x="121.663018" y="387.827782" style="fill: #1f77b4; fill-opacity: 0.5; stroke: #ffffff; stroke-opacity: 0.5; stroke-width: 0.48"/>
     <use xlink:href="#mb35ae04fef" x="218.595424" y="355.152132" style="fill: #1f77b4; fill-opacity: 0.5; stroke: #ffffff; stroke-opacity: 0.5; stroke-width: 0.48"/>
     <use xlink:href="#mb35ae04fef" x="65.454137" y="356.007515" style="fill: #1f77b4; fill-opacity: 0.5; stroke: #ffffff; stroke-opacity: 0.5; stroke-width: 0.48"/>
     <use xlink:href="#mb35ae04fef" x="121.438002" y="358.060436" style="fill: #1f77b4; fill-opacity: 0.5; stroke: #ffffff; stroke-opacity: 0.5; stroke-width: 0.48"/>
     <use xlink:href="#mb35ae04fef" x="127.481277" y="363.962582" style="fill: #1f77b4; fill-opacity: 0.5; stroke: #ffffff; stroke-opacity: 0.5; stroke-width: 0.48"/>
     <use xlink:href="#mb35ae04fef" x="271.516935" y="345.91399" style="fill: #1f77b4; fill-opacity: 0.5; stroke: #ffffff; stroke-opacity: 0.5; stroke-width: 0.48"/>
     <use xlink:href="#mb35ae04fef" x="104.075375" y="337.445693" style="fill: #1f77b4; fill-opacity: 0.5; stroke: #ffffff; stroke-opacity: 0.5; stroke-width: 0.48"/>
     <use xlink:href="#mb35ae04fef" x="95.968387" y="347.45368" style="fill: #1f77b4; fill-opacity: 0.5; stroke: #ffffff; stroke-opacity: 0.5; stroke-width: 0.48"/>
     <use xlink:href="#mb35ae04fef" x="155.968243" y="350.875214" style="fill: #1f77b4; fill-opacity: 0.5; stroke: #ffffff; stroke-opacity: 0.5; stroke-width: 0.48"/>
     <use xlink:href="#mb35ae04fef" x="55.679891" y="330.34601" style="fill: #1f77b4; fill-opacity: 0.5; stroke: #ffffff; stroke-opacity: 0.5; stroke-width: 0.48"/>
     <use xlink:href="#mb35ae04fef" x="285.285743" y="333.339852" style="fill: #1f77b4; fill-opacity: 0.5; stroke: #ffffff; stroke-opacity: 0.5; stroke-width: 0.48"/>
     <use xlink:href="#mb35ae04fef" x="168.577685" y="326.496784" style="fill: #1f77b4; fill-opacity: 0.5; stroke: #ffffff; stroke-opacity: 0.5; stroke-width: 0.48"/>
     <use xlink:href="#mb35ae04fef" x="112.109501" y="327.181091" style="fill: #1f77b4; fill-opacity: 0.5; stroke: #ffffff; stroke-opacity: 0.5; stroke-width: 0.48"/>
     <use xlink:href="#mb35ae04fef" x="131.981587" y="324.957093" style="fill: #1f77b4; fill-opacity: 0.5; stroke: #ffffff; stroke-opacity: 0.5; stroke-width: 0.48"/>
     <use xlink:href="#mb35ae04fef" x="202.26144" y="323.502941" style="fill: #1f77b4; fill-opacity: 0.5; stroke: #ffffff; stroke-opacity: 0.5; stroke-width: 0.48"/>
     <use xlink:href="#mb35ae04fef" x="49.148011" y="320.423561" style="fill: #1f77b4; fill-opacity: 0.5; stroke: #ffffff; stroke-opacity: 0.5; stroke-width: 0.48"/>
     <use xlink:href="#mb35ae04fef" x="282.116239" y="202.722788" style="fill: #1f77b4; fill-opacity: 0.5; stroke: #ffffff; stroke-opacity: 0.5; stroke-width: 0.48"/>
     <use xlink:href="#mb35ae04fef" x="172.255082" y="320.081407" style="fill: #1f77b4; fill-opacity: 0.5; stroke: #ffffff; stroke-opacity: 0.5; stroke-width: 0.48"/>
     <use xlink:href="#mb35ae04fef" x="91.787384" y="253.275954" style="fill: #1f77b4; fill-opacity: 0.5; stroke: #ffffff; stroke-opacity: 0.5; stroke-width: 0.48"/>
     <use xlink:href="#mb35ae04fef" x="236.930976" y="294.590978" style="fill: #1f77b4; fill-opacity: 0.5; stroke: #ffffff; stroke-opacity: 0.5; stroke-width: 0.48"/>
     <use xlink:href="#mb35ae04fef" x="256.49447" y="304.427889" style="fill: #1f77b4; fill-opacity: 0.5; stroke: #ffffff; stroke-opacity: 0.5; stroke-width: 0.48"/>
     <use xlink:href="#mb35ae04fef" x="149.024907" y="313.238339" style="fill: #1f77b4; fill-opacity: 0.5; stroke: #ffffff; stroke-opacity: 0.5; stroke-width: 0.48"/>
     <use xlink:href="#mb35ae04fef" x="198.204731" y="268.843934" style="fill: #1f77b4; fill-opacity: 0.5; stroke: #ffffff; stroke-opacity: 0.5; stroke-width: 0.48"/>
     <use xlink:href="#mb35ae04fef" x="168.172658" y="275.687002" style="fill: #1f77b4; fill-opacity: 0.5; stroke: #ffffff; stroke-opacity: 0.5; stroke-width: 0.48"/>
     <use xlink:href="#mb35ae04fef" x="138.069865" y="372.259802" style="fill: #1f77b4; fill-opacity: 0.5; stroke: #ffffff; stroke-opacity: 0.5; stroke-width: 0.48"/>
     <use xlink:href="#mb35ae04fef" x="149.517798" y="299.808818" style="fill: #1f77b4; fill-opacity: 0.5; stroke: #ffffff; stroke-opacity: 0.5; stroke-width: 0.48"/>
     <use xlink:href="#mb35ae04fef" x="99.770078" y="300.236509" style="fill: #1f77b4; fill-opacity: 0.5; stroke: #ffffff; stroke-opacity: 0.5; stroke-width: 0.48"/>
     <use xlink:href="#mb35ae04fef" x="51.655327" y="437.354489" style="fill: #1f77b4; fill-opacity: 0.5; stroke: #ffffff; stroke-opacity: 0.5; stroke-width: 0.48"/>
     <use xlink:href="#mb35ae04fef" x="300.483935" y="179.541894" style="fill: #1f77b4; fill-opacity: 0.5; stroke: #ffffff; stroke-opacity: 0.5; stroke-width: 0.48"/>
     <use xlink:href="#mb35ae04fef" x="194.722348" y="173.725286" style="fill: #1f77b4; fill-opacity: 0.5; stroke: #ffffff; stroke-opacity: 0.5; stroke-width: 0.48"/>
     <use xlink:href="#mb35ae04fef" x="258.682478" y="243.011352" style="fill: #1f77b4; fill-opacity: 0.5; stroke: #ffffff; stroke-opacity: 0.5; stroke-width: 0.48"/>
     <use xlink:href="#mb35ae04fef" x="268.113843" y="244.379965" style="fill: #1f77b4; fill-opacity: 0.5; stroke: #ffffff; stroke-opacity: 0.5; stroke-width: 0.48"/>
     <use xlink:href="#mb35ae04fef" x="317.567972" y="121.632429" style="fill: #1f77b4; fill-opacity: 0.5; stroke: #ffffff; stroke-opacity: 0.5; stroke-width: 0.48"/>
     <use xlink:href="#mb35ae04fef" x="311.243964" y="213.928312" style="fill: #1f77b4; fill-opacity: 0.5; stroke: #ffffff; stroke-opacity: 0.5; stroke-width: 0.48"/>
     <use xlink:href="#mb35ae04fef" x="291.281871" y="216.408924" style="fill: #1f77b4; fill-opacity: 0.5; stroke: #ffffff; stroke-opacity: 0.5; stroke-width: 0.48"/>
     <use xlink:href="#mb35ae04fef" x="230.197654" y="223.850761" style="fill: #1f77b4; fill-opacity: 0.5; stroke: #ffffff; stroke-opacity: 0.5; stroke-width: 0.48"/>
     <use xlink:href="#mb35ae04fef" x="277.832371" y="233.259979" style="fill: #1f77b4; fill-opacity: 0.5; stroke: #ffffff; stroke-opacity: 0.5; stroke-width: 0.48"/>
     <use xlink:href="#mb35ae04fef" x="157.119037" y="242.327045" style="fill: #1f77b4; fill-opacity: 0.5; stroke: #ffffff; stroke-opacity: 0.5; stroke-width: 0.48"/>
     <use xlink:href="#mb35ae04fef" x="141.670113" y="258.493793" style="fill: #1f77b4; fill-opacity: 0.5; stroke: #ffffff; stroke-opacity: 0.5; stroke-width: 0.48"/>
     <use xlink:href="#mb35ae04fef" x="275.545785" y="325.12817" style="fill: #1f77b4; fill-opacity: 0.5; stroke: #ffffff; stroke-opacity: 0.5; stroke-width: 0.48"/>
     <use xlink:href="#mb35ae04fef" x="185.263123" y="181.423738" style="fill: #1f77b4; fill-opacity: 0.5; stroke: #ffffff; stroke-opacity: 0.5; stroke-width: 0.48"/>
     <use xlink:href="#mb35ae04fef" x="309.006667" y="188.608959" style="fill: #1f77b4; fill-opacity: 0.5; stroke: #ffffff; stroke-opacity: 0.5; stroke-width: 0.48"/>
     <use xlink:href="#mb35ae04fef" x="268.497441" y="201.867404" style="fill: #1f77b4; fill-opacity: 0.5; stroke: #ffffff; stroke-opacity: 0.5; stroke-width: 0.48"/>
     <use xlink:href="#mb35ae04fef" x="287.683766" y="212.98739" style="fill: #1f77b4; fill-opacity: 0.5; stroke: #ffffff; stroke-opacity: 0.5; stroke-width: 0.48"/>
     <use xlink:href="#mb35ae04fef" x="315.493543" y="192.458185" style="fill: #1f77b4; fill-opacity: 0.5; stroke: #ffffff; stroke-opacity: 0.5; stroke-width: 0.48"/>
     <use xlink:href="#mb35ae04fef" x="304.00275" y="186.727116" style="fill: #1f77b4; fill-opacity: 0.5; stroke: #ffffff; stroke-opacity: 0.5; stroke-width: 0.48"/>
     <use xlink:href="#mb35ae04fef" x="279.308902" y="189.549881" style="fill: #1f77b4; fill-opacity: 0.5; stroke: #ffffff; stroke-opacity: 0.5; stroke-width: 0.48"/>
     <use xlink:href="#mb35ae04fef" x="301.094692" y="184.93081" style="fill: #1f77b4; fill-opacity: 0.5; stroke: #ffffff; stroke-opacity: 0.5; stroke-width: 0.48"/>
     <use xlink:href="#mb35ae04fef" x="311.263251" y="165.941296" style="fill: #1f77b4; fill-opacity: 0.5; stroke: #ffffff; stroke-opacity: 0.5; stroke-width: 0.48"/>
     <use xlink:href="#mb35ae04fef" x="241.737737" y="287.662372" style="fill: #1f77b4; fill-opacity: 0.5; stroke: #ffffff; stroke-opacity: 0.5; stroke-width: 0.48"/>
     <use xlink:href="#mb35ae04fef" x="224.072945" y="315.975566" style="fill: #1f77b4; fill-opacity: 0.5; stroke: #ffffff; stroke-opacity: 0.5; stroke-width: 0.48"/>
     <use xlink:href="#mb35ae04fef" x="221.499196" y="312.896186" style="fill: #1f77b4; fill-opacity: 0.5; stroke: #ffffff; stroke-opacity: 0.5; stroke-width: 0.48"/>
     <use xlink:href="#mb35ae04fef" x="303.053398" y="245.748579" style="fill: #1f77b4; fill-opacity: 0.5; stroke: #ffffff; stroke-opacity: 0.5; stroke-width: 0.48"/>
     <use xlink:href="#mb35ae04fef" x="255.452969" y="247.801499" style="fill: #1f77b4; fill-opacity: 0.5; stroke: #ffffff; stroke-opacity: 0.5; stroke-width: 0.48"/>
     <use xlink:href="#mb35ae04fef" x="298.008764" y="210.250163" style="fill: #1f77b4; fill-opacity: 0.5; stroke: #ffffff; stroke-opacity: 0.5; stroke-width: 0.48"/>
     <use xlink:href="#mb35ae04fef" x="216.583143" y="322.134328" style="fill: #1f77b4; fill-opacity: 0.5; stroke: #ffffff; stroke-opacity: 0.5; stroke-width: 0.48"/>
     <use xlink:href="#mb35ae04fef" x="279.962518" y="165.428066" style="fill: #1f77b4; fill-opacity: 0.5; stroke: #ffffff; stroke-opacity: 0.5; stroke-width: 0.48"/>
     <use xlink:href="#mb35ae04fef" x="224.777994" y="176.376975" style="fill: #1f77b4; fill-opacity: 0.5; stroke: #ffffff; stroke-opacity: 0.5; stroke-width: 0.48"/>
     <use xlink:href="#mb35ae04fef" x="215.858807" y="144.898861" style="fill: #1f77b4; fill-opacity: 0.5; stroke: #ffffff; stroke-opacity: 0.5; stroke-width: 0.48"/>
     <use xlink:href="#mb35ae04fef" x="257.814561" y="131.46934" style="fill: #1f77b4; fill-opacity: 0.5; stroke: #ffffff; stroke-opacity: 0.5; stroke-width: 0.48"/>
     <use xlink:href="#mb35ae04fef" x="290.227513" y="125.994885" style="fill: #1f77b4; fill-opacity: 0.5; stroke: #ffffff; stroke-opacity: 0.5; stroke-width: 0.48"/>
     <use xlink:href="#mb35ae04fef" x="224.250815" y="166.796679" style="fill: #1f77b4; fill-opacity: 0.5; stroke: #ffffff; stroke-opacity: 0.5; stroke-width: 0.48"/>
     <use xlink:href="#mb35ae04fef" x="272.074117" y="149.603471" style="fill: #1f77b4; fill-opacity: 0.5; stroke: #ffffff; stroke-opacity: 0.5; stroke-width: 0.48"/>
     <use xlink:href="#mb35ae04fef" x="207.21821" y="187.839114" style="fill: #1f77b4; fill-opacity: 0.5; stroke: #ffffff; stroke-opacity: 0.5; stroke-width: 0.48"/>
     <use xlink:href="#mb35ae04fef" x="257.289525" y="244.893195" style="fill: #1f77b4; fill-opacity: 0.5; stroke: #ffffff; stroke-opacity: 0.5; stroke-width: 0.48"/>
     <use xlink:href="#mb35ae04fef" x="185.706725" y="173.297594" style="fill: #1f77b4; fill-opacity: 0.5; stroke: #ffffff; stroke-opacity: 0.5; stroke-width: 0.48"/>
     <use xlink:href="#mb35ae04fef" x="245.543714" y="174.666208" style="fill: #1f77b4; fill-opacity: 0.5; stroke: #ffffff; stroke-opacity: 0.5; stroke-width: 0.48"/>
     <use xlink:href="#mb35ae04fef" x="110.086504" y="341.294919" style="fill: #1f77b4; fill-opacity: 0.5; stroke: #ffffff; stroke-opacity: 0.5; stroke-width: 0.48"/>
     <use xlink:href="#mb35ae04fef" x="270.076836" y="91.180776" style="fill: #1f77b4; fill-opacity: 0.5; stroke: #ffffff; stroke-opacity: 0.5; stroke-width: 0.48"/>
     <use xlink:href="#mb35ae04fef" x="266.058701" y="79.633098" style="fill: #1f77b4; fill-opacity: 0.5; stroke: #ffffff; stroke-opacity: 0.5; stroke-width: 0.48"/>
     <use xlink:href="#mb35ae04fef" x="328.343002" y="83.738939" style="fill: #1f77b4; fill-opacity: 0.5; stroke: #ffffff; stroke-opacity: 0.5; stroke-width: 0.48"/>
     <use xlink:href="#mb35ae04fef" x="275.978672" y="106.064449" style="fill: #1f77b4; fill-opacity: 0.5; stroke: #ffffff; stroke-opacity: 0.5; stroke-width: 0.48"/>
     <use xlink:href="#mb35ae04fef" x="321.118931" y="158.242844" style="fill: #1f77b4; fill-opacity: 0.5; stroke: #ffffff; stroke-opacity: 0.5; stroke-width: 0.48"/>
     <use xlink:href="#mb35ae04fef" x="283.755637" y="117.013358" style="fill: #1f77b4; fill-opacity: 0.5; stroke: #ffffff; stroke-opacity: 0.5; stroke-width: 0.48"/>
     <use xlink:href="#mb35ae04fef" x="185.80316" y="269.186087" style="fill: #1f77b4; fill-opacity: 0.5; stroke: #ffffff; stroke-opacity: 0.5; stroke-width: 0.48"/>
     <use xlink:href="#mb35ae04fef" x="290.546821" y="112.650902" style="fill: #1f77b4; fill-opacity: 0.5; stroke: #ffffff; stroke-opacity: 0.5; stroke-width: 0.48"/>
     <use xlink:href="#mb35ae04fef" x="250.464053" y="194.596644" style="fill: #1f77b4; fill-opacity: 0.5; stroke: #ffffff; stroke-opacity: 0.5; stroke-width: 0.48"/>
     <use xlink:href="#mb35ae04fef" x="228.457534" y="214.52708" style="fill: #1f77b4; fill-opacity: 0.5; stroke: #ffffff; stroke-opacity: 0.5; stroke-width: 0.48"/>
     <use xlink:href="#mb35ae04fef" x="228.543254" y="212.132006" style="fill: #1f77b4; fill-opacity: 0.5; stroke: #ffffff; stroke-opacity: 0.5; stroke-width: 0.48"/>
     <use xlink:href="#mb35ae04fef" x="297.75589" y="112.308749" style="fill: #1f77b4; fill-opacity: 0.5; stroke: #ffffff; stroke-opacity: 0.5; stroke-width: 0.48"/>
     <use xlink:href="#mb35ae04fef" x="345.990649" y="42.081761" style="fill: #1f77b4; fill-opacity: 0.5; stroke: #ffffff; stroke-opacity: 0.5; stroke-width: 0.48"/>
     <use xlink:href="#mb35ae04fef" x="342.750425" y="44.22022" style="fill: #1f77b4; fill-opacity: 0.5; stroke: #ffffff; stroke-opacity: 0.5; stroke-width: 0.48"/>
     <use xlink:href="#mb35ae04fef" x="319.586683" y="211.447699" style="fill: #1f77b4; fill-opacity: 0.5; stroke: #ffffff; stroke-opacity: 0.5; stroke-width: 0.48"/>
     <use xlink:href="#mb35ae04fef" x="318.052291" y="192.20157" style="fill: #1f77b4; fill-opacity: 0.5; stroke: #ffffff; stroke-opacity: 0.5; stroke-width: 0.48"/>
     <use xlink:href="#mb35ae04fef" x="335.939955" y="131.725955" style="fill: #1f77b4; fill-opacity: 0.5; stroke: #ffffff; stroke-opacity: 0.5; stroke-width: 0.48"/>
     <use xlink:href="#mb35ae04fef" x="324.721323" y="141.733942" style="fill: #1f77b4; fill-opacity: 0.5; stroke: #ffffff; stroke-opacity: 0.5; stroke-width: 0.48"/>
     <use xlink:href="#mb35ae04fef" x="337.643644" y="110.597982" style="fill: #1f77b4; fill-opacity: 0.5; stroke: #ffffff; stroke-opacity: 0.5; stroke-width: 0.48"/>
     <use xlink:href="#mb35ae04fef" x="342.478263" y="93.148158" style="fill: #1f77b4; fill-opacity: 0.5; stroke: #ffffff; stroke-opacity: 0.5; stroke-width: 0.48"/>
     <use xlink:href="#mb35ae04fef" x="347.295739" y="87.588165" style="fill: #1f77b4; fill-opacity: 0.5; stroke: #ffffff; stroke-opacity: 0.5; stroke-width: 0.48"/>
     <use xlink:href="#mb35ae04fef" x="338.31869" y="51.747595" style="fill: #1f77b4; fill-opacity: 0.5; stroke: #ffffff; stroke-opacity: 0.5; stroke-width: 0.48"/>
     <use xlink:href="#mb35ae04fef" x="310.478911" y="247.630423" style="fill: #1f77b4; fill-opacity: 0.5; stroke: #ffffff; stroke-opacity: 0.5; stroke-width: 0.48"/>
     <use xlink:href="#mb35ae04fef" x="327.382935" y="174.58067" style="fill: #1f77b4; fill-opacity: 0.5; stroke: #ffffff; stroke-opacity: 0.5; stroke-width: 0.48"/>
     <use xlink:href="#mb35ae04fef" x="317.282952" y="130.870571" style="fill: #1f77b4; fill-opacity: 0.5; stroke: #ffffff; stroke-opacity: 0.5; stroke-width: 0.48"/>
     <use xlink:href="#mb35ae04fef" x="276.514423" y="274.147312" style="fill: #1f77b4; fill-opacity: 0.5; stroke: #ffffff; stroke-opacity: 0.5; stroke-width: 0.48"/>
     <use xlink:href="#mb35ae04fef" x="161.180032" y="367.298578" style="fill: #1f77b4; fill-opacity: 0.5; stroke: #ffffff; stroke-opacity: 0.5; stroke-width: 0.48"/>
     <use xlink:href="#mb35ae04fef" x="323.677679" y="64.236195" style="fill: #1f77b4; fill-opacity: 0.5; stroke: #ffffff; stroke-opacity: 0.5; stroke-width: 0.48"/>
     <use xlink:href="#mb35ae04fef" x="277.607356" y="247.117192" style="fill: #1f77b4; fill-opacity: 0.5; stroke: #ffffff; stroke-opacity: 0.5; stroke-width: 0.48"/>
     <use xlink:href="#mb35ae04fef" x="217.153182" y="245.235349" style="fill: #1f77b4; fill-opacity: 0.5; stroke: #ffffff; stroke-opacity: 0.5; stroke-width: 0.48"/>
     <use xlink:href="#mb35ae04fef" x="197.139657" y="423.326199" style="fill: #1f77b4; fill-opacity: 0.5; stroke: #ffffff; stroke-opacity: 0.5; stroke-width: 0.48"/>
     <use xlink:href="#mb35ae04fef" x="265.649387" y="205.545553" style="fill: #1f77b4; fill-opacity: 0.5; stroke: #ffffff; stroke-opacity: 0.5; stroke-width: 0.48"/>
     <use xlink:href="#mb35ae04fef" x="345.660626" y="153.965927" style="fill: #1f77b4; fill-opacity: 0.5; stroke: #ffffff; stroke-opacity: 0.5; stroke-width: 0.48"/>
     <use xlink:href="#mb35ae04fef" x="250.616207" y="232.233519" style="fill: #1f77b4; fill-opacity: 0.5; stroke: #ffffff; stroke-opacity: 0.5; stroke-width: 0.48"/>
     <use xlink:href="#mb35ae04fef" x="286.659409" y="224.877221" style="fill: #1f77b4; fill-opacity: 0.5; stroke: #ffffff; stroke-opacity: 0.5; stroke-width: 0.48"/>
     <use xlink:href="#mb35ae04fef" x="246.43949" y="254.302414" style="fill: #1f77b4; fill-opacity: 0.5; stroke: #ffffff; stroke-opacity: 0.5; stroke-width: 0.48"/>
     <use xlink:href="#mb35ae04fef" x="262.602034" y="142.247172" style="fill: #1f77b4; fill-opacity: 0.5; stroke: #ffffff; stroke-opacity: 0.5; stroke-width: 0.48"/>
     <use xlink:href="#mb35ae04fef" x="241.448431" y="312.725109" style="fill: #1f77b4; fill-opacity: 0.5; stroke: #ffffff; stroke-opacity: 0.5; stroke-width: 0.48"/>
     <use xlink:href="#mb35ae04fef" x="180.649233" y="279.194075" style="fill: #1f77b4; fill-opacity: 0.5; stroke: #ffffff; stroke-opacity: 0.5; stroke-width: 0.48"/>
     <use xlink:href="#mb35ae04fef" x="267.333789" y="294.50544" style="fill: #1f77b4; fill-opacity: 0.5; stroke: #ffffff; stroke-opacity: 0.5; stroke-width: 0.48"/>
     <use xlink:href="#mb35ae04fef" x="270.454005" y="132.068108" style="fill: #1f77b4; fill-opacity: 0.5; stroke: #ffffff; stroke-opacity: 0.5; stroke-width: 0.48"/>
     <use xlink:href="#mb35ae04fef" x="156.176115" y="351.645059" style="fill: #1f77b4; fill-opacity: 0.5; stroke: #ffffff; stroke-opacity: 0.5; stroke-width: 0.48"/>
     <use xlink:href="#mb35ae04fef" x="195.678128" y="252.9338" style="fill: #1f77b4; fill-opacity: 0.5; stroke: #ffffff; stroke-opacity: 0.5; stroke-width: 0.48"/>
     <use xlink:href="#mb35ae04fef" x="110.118649" y="309.902343" style="fill: #1f77b4; fill-opacity: 0.5; stroke: #ffffff; stroke-opacity: 0.5; stroke-width: 0.48"/>
     <use xlink:href="#mb35ae04fef" x="211.064905" y="234.28644" style="fill: #1f77b4; fill-opacity: 0.5; stroke: #ffffff; stroke-opacity: 0.5; stroke-width: 0.48"/>
     <use xlink:href="#mb35ae04fef" x="305.196403" y="172.185596" style="fill: #1f77b4; fill-opacity: 0.5; stroke: #ffffff; stroke-opacity: 0.5; stroke-width: 0.48"/>
     <use xlink:href="#mb35ae04fef" x="182.830812" y="268.758396" style="fill: #1f77b4; fill-opacity: 0.5; stroke: #ffffff; stroke-opacity: 0.5; stroke-width: 0.48"/>
     <use xlink:href="#mb35ae04fef" x="240.824816" y="231.292597" style="fill: #1f77b4; fill-opacity: 0.5; stroke: #ffffff; stroke-opacity: 0.5; stroke-width: 0.48"/>
     <use xlink:href="#mb35ae04fef" x="245.56943" y="308.191576" style="fill: #1f77b4; fill-opacity: 0.5; stroke: #ffffff; stroke-opacity: 0.5; stroke-width: 0.48"/>
     <use xlink:href="#mb35ae04fef" x="118.937115" y="398.434538" style="fill: #1f77b4; fill-opacity: 0.5; stroke: #ffffff; stroke-opacity: 0.5; stroke-width: 0.48"/>
     <use xlink:href="#mb35ae04fef" x="132.650205" y="275.858079" style="fill: #1f77b4; fill-opacity: 0.5; stroke: #ffffff; stroke-opacity: 0.5; stroke-width: 0.48"/>
     <use xlink:href="#mb35ae04fef" x="184.489498" y="246.860577" style="fill: #1f77b4; fill-opacity: 0.5; stroke: #ffffff; stroke-opacity: 0.5; stroke-width: 0.48"/>
     <use xlink:href="#mb35ae04fef" x="195.675985" y="309.132498" style="fill: #1f77b4; fill-opacity: 0.5; stroke: #ffffff; stroke-opacity: 0.5; stroke-width: 0.48"/>
     <use xlink:href="#mb35ae04fef" x="153.118047" y="288.688832" style="fill: #1f77b4; fill-opacity: 0.5; stroke: #ffffff; stroke-opacity: 0.5; stroke-width: 0.48"/>
     <use xlink:href="#mb35ae04fef" x="219.750504" y="241.386123" style="fill: #1f77b4; fill-opacity: 0.5; stroke: #ffffff; stroke-opacity: 0.5; stroke-width: 0.48"/>
     <use xlink:href="#mb35ae04fef" x="257.274523" y="237.194744" style="fill: #1f77b4; fill-opacity: 0.5; stroke: #ffffff; stroke-opacity: 0.5; stroke-width: 0.48"/>
     <use xlink:href="#mb35ae04fef" x="332.766164" y="179.370817" style="fill: #1f77b4; fill-opacity: 0.5; stroke: #ffffff; stroke-opacity: 0.5; stroke-width: 0.48"/>
     <use xlink:href="#mb35ae04fef" x="336.456419" y="140.194252" style="fill: #1f77b4; fill-opacity: 0.5; stroke: #ffffff; stroke-opacity: 0.5; stroke-width: 0.48"/>
     <use xlink:href="#mb35ae04fef" x="328.353717" y="186.727116" style="fill: #1f77b4; fill-opacity: 0.5; stroke: #ffffff; stroke-opacity: 0.5; stroke-width: 0.48"/>
     <use xlink:href="#mb35ae04fef" x="248.858942" y="266.106707" style="fill: #1f77b4; fill-opacity: 0.5; stroke: #ffffff; stroke-opacity: 0.5; stroke-width: 0.48"/>
     <use xlink:href="#mb35ae04fef" x="328.606591" y="58.505125" style="fill: #1f77b4; fill-opacity: 0.5; stroke: #ffffff; stroke-opacity: 0.5; stroke-width: 0.48"/>
     <use xlink:href="#mb35ae04fef" x="346.558545" y="60.30143" style="fill: #1f77b4; fill-opacity: 0.5; stroke: #ffffff; stroke-opacity: 0.5; stroke-width: 0.48"/>
     <use xlink:href="#mb35ae04fef" x="345.641339" y="52.51744" style="fill: #1f77b4; fill-opacity: 0.5; stroke: #ffffff; stroke-opacity: 0.5; stroke-width: 0.48"/>
    </g>
   </g>
   <g id="FillBetweenPolyCollection_1">
    <path d="M 49.148011 381.087063 
L 49.148011 422.449934 
L 52.159605 419.433545 
L 55.171198 416.417157 
L 58.182791 413.422153 
L 61.194384 410.400901 
L 64.205977 407.376176 
L 67.217571 404.461306 
L 70.229164 401.543041 
L 73.240757 398.515037 
L 76.25235 395.486946 
L 79.263943 392.458856 
L 82.275537 389.430765 
L 85.28713 386.438374 
L 88.298723 383.41951 
L 91.310316 380.398017 
L 94.321909 377.510569 
L 97.333503 374.606959 
L 100.345096 371.566268 
L 103.356689 368.519644 
L 106.368282 365.516225 
L 109.379875 362.493786 
L 112.391469 359.559537 
L 115.403062 356.630695 
L 118.414655 353.589413 
L 121.426248 350.356966 
L 124.437841 347.243678 
L 127.449435 344.330699 
L 130.461028 341.420317 
L 133.472621 338.509935 
L 136.484214 335.592236 
L 139.495808 332.623335 
L 142.507401 329.720668 
L 145.518994 326.755331 
L 148.530587 323.787376 
L 151.54218 320.834304 
L 154.553774 317.915936 
L 157.565367 315.16821 
L 160.57696 312.002217 
L 163.588553 309.049325 
L 166.600146 306.319065 
L 169.61174 303.348816 
L 172.623333 300.531638 
L 175.634926 297.658817 
L 178.646519 294.888665 
L 181.658112 292.000992 
L 184.669706 289.093316 
L 187.681299 286.174619 
L 190.692892 283.233278 
L 193.704485 280.303313 
L 196.716078 277.441822 
L 199.727672 274.58059 
L 202.739265 271.720026 
L 205.750858 268.883327 
L 208.762451 266.055932 
L 211.774044 263.467757 
L 214.785638 260.820928 
L 217.797231 258.114027 
L 220.808824 255.354215 
L 223.820417 252.719726 
L 226.83201 249.932482 
L 229.843604 247.251211 
L 232.855197 244.736668 
L 235.86679 242.140258 
L 238.878383 239.544004 
L 241.889976 236.848306 
L 244.90157 234.123588 
L 247.913163 231.429252 
L 250.924756 228.7317 
L 253.936349 226.306202 
L 256.947942 223.792749 
L 259.959536 221.063384 
L 262.971129 218.606159 
L 265.982722 216.00187 
L 268.994315 213.483321 
L 272.005909 210.920023 
L 275.017502 208.182904 
L 278.029095 205.664484 
L 281.040688 203.193454 
L 284.052281 200.899482 
L 287.063875 198.390277 
L 290.075468 195.714897 
L 293.087061 193.273484 
L 296.098654 190.883968 
L 299.110247 188.494452 
L 302.121841 186.002882 
L 305.133434 183.507418 
L 308.145027 181.142978 
L 311.15662 178.781119 
L 314.168213 176.412497 
L 317.179807 173.859654 
L 320.1914 171.360057 
L 323.202993 169.095181 
L 326.214586 166.538278 
L 329.226179 163.962294 
L 332.237773 161.428258 
L 335.249366 159.095241 
L 338.260959 156.609376 
L 341.272552 154.040353 
L 344.284145 151.475093 
L 347.295739 148.910639 
L 347.295739 114.777909 
L 347.295739 114.777909 
L 344.284145 117.690568 
L 341.272552 120.597998 
L 338.260959 123.522377 
L 335.249366 126.526871 
L 332.237773 129.519614 
L 329.226179 132.435 
L 326.214586 135.351068 
L 323.202993 138.267136 
L 320.1914 141.20409 
L 317.179807 144.122006 
L 314.168213 147.087732 
L 311.15662 150.053459 
L 308.145027 153.019186 
L 305.133434 155.86497 
L 302.121841 158.696493 
L 299.110247 161.622093 
L 296.098654 164.547111 
L 293.087061 167.41603 
L 290.075468 170.331248 
L 287.063875 173.217377 
L 284.052281 176.06372 
L 281.040688 179.031805 
L 278.029095 181.929811 
L 275.017502 184.900979 
L 272.005909 187.73246 
L 268.994315 190.566658 
L 265.982722 193.448627 
L 262.971129 196.172656 
L 259.959536 198.87366 
L 256.947942 201.827509 
L 253.936349 204.835669 
L 250.924756 207.740626 
L 247.913163 210.645583 
L 244.90157 213.55054 
L 241.889976 216.394002 
L 238.878383 219.146664 
L 235.86679 221.839766 
L 232.855197 224.783422 
L 229.843604 227.34392 
L 226.83201 230.078787 
L 223.820417 232.886795 
L 220.808824 235.56274 
L 217.797231 238.306479 
L 214.785638 240.95594 
L 211.774044 243.692681 
L 208.762451 246.281728 
L 205.750858 248.866257 
L 202.739265 251.454036 
L 199.727672 254.079592 
L 196.716078 256.764276 
L 193.704485 259.539589 
L 190.692892 262.304818 
L 187.681299 264.912519 
L 184.669706 267.36754 
L 181.658112 270.062142 
L 178.646519 272.734338 
L 175.634926 275.415269 
L 172.623333 278.073646 
L 169.61174 280.532697 
L 166.600146 283.174148 
L 163.588553 285.815887 
L 160.57696 288.457625 
L 157.565367 291.034688 
L 154.553774 293.607827 
L 151.54218 296.182535 
L 148.530587 298.803359 
L 145.518994 301.436903 
L 142.507401 303.891639 
L 139.495808 306.541204 
L 136.484214 309.031979 
L 133.472621 311.497296 
L 130.461028 313.848592 
L 127.449435 316.207912 
L 124.437841 318.696094 
L 121.426248 321.284504 
L 118.414655 323.868256 
L 115.403062 326.455512 
L 112.391469 329.043117 
L 109.379875 331.577728 
L 106.368282 334.212284 
L 103.356689 336.753685 
L 100.345096 339.252805 
L 97.333503 341.713755 
L 94.321909 344.150282 
L 91.310316 346.713403 
L 88.298723 349.275478 
L 85.28713 351.836113 
L 82.275537 354.396747 
L 79.263943 356.81534 
L 76.25235 359.251482 
L 73.240757 361.663203 
L 70.229164 364.01745 
L 67.217571 366.650016 
L 64.205977 368.860323 
L 61.194384 371.187351 
L 58.182791 373.728047 
L 55.171198 376.262855 
L 52.159605 378.626288 
L 49.148011 381.087063 
z
" clip-path="url(#pa309da7af8)" style="fill: #ff0000; fill-opacity: 0.15"/>
   </g>
   <g id="matplotlib.axis_1">
    <g id="xtick_1">
     <g id="line2d_1">
      <defs>
       <path id="m7a9b12d4b8" d="M 0 0 
L 0 3.5 
" style="stroke: #000000; stroke-width: 0.8"/>
      </defs>
      <g>
       <use xlink:href="#m7a9b12d4b8" x="37.01646" y="457.118125" style="stroke: #000000; stroke-width: 0.8"/>
      </g>
     </g>
     <g id="text_1">
      <!-- 0.0 -->
      <g transform="translate(29.064897 471.716562) scale(0.1 -0.1)">
       <defs>
        <path id="DejaVuSans-30" d="M 2034 4250 
Q 1547 4250 1301 3770 
Q 1056 3291 1056 2328 
Q 1056 1369 1301 889 
Q 1547 409 2034 409 
Q 2525 409 2770 889 
Q 3016 1369 3016 2328 
Q 3016 3291 2770 3770 
Q 2525 4250 2034 4250 
z
M 2034 4750 
Q 2819 4750 3233 4129 
Q 3647 3509 3647 2328 
Q 3647 1150 3233 529 
Q 2819 -91 2034 -91 
Q 1250 -91 836 529 
Q 422 1150 422 2328 
Q 422 3509 836 4129 
Q 1250 4750 2034 4750 
z
" transform="scale(0.015625)"/>
        <path id="DejaVuSans-2e" d="M 684 794 
L 1344 794 
L 1344 0 
L 684 0 
L 684 794 
z
" transform="scale(0.015625)"/>
       </defs>
       <use xlink:href="#DejaVuSans-30"/>
       <use xlink:href="#DejaVuSans-2e" transform="translate(63.623047 0)"/>
       <use xlink:href="#DejaVuSans-30" transform="translate(95.410156 0)"/>
      </g>
     </g>
    </g>
    <g id="xtick_2">
     <g id="line2d_2">
      <g>
       <use xlink:href="#m7a9b12d4b8" x="79.876561" y="457.118125" style="stroke: #000000; stroke-width: 0.8"/>
      </g>
     </g>
     <g id="text_2">
      <!-- 0.2 -->
      <g transform="translate(71.924999 471.716562) scale(0.1 -0.1)">
       <defs>
        <path id="DejaVuSans-32" d="M 1228 531 
L 3431 531 
L 3431 0 
L 469 0 
L 469 531 
Q 828 903 1448 1529 
Q 2069 2156 2228 2338 
Q 2531 2678 2651 2914 
Q 2772 3150 2772 3378 
Q 2772 3750 2511 3984 
Q 2250 4219 1831 4219 
Q 1534 4219 1204 4116 
Q 875 4013 500 3803 
L 500 4441 
Q 881 4594 1212 4672 
Q 1544 4750 1819 4750 
Q 2544 4750 2975 4387 
Q 3406 4025 3406 3419 
Q 3406 3131 3298 2873 
Q 3191 2616 2906 2266 
Q 2828 2175 2409 1742 
Q 1991 1309 1228 531 
z
" transform="scale(0.015625)"/>
       </defs>
       <use xlink:href="#DejaVuSans-30"/>
       <use xlink:href="#DejaVuSans-2e" transform="translate(63.623047 0)"/>
       <use xlink:href="#DejaVuSans-32" transform="translate(95.410156 0)"/>
      </g>
     </g>
    </g>
    <g id="xtick_3">
     <g id="line2d_3">
      <g>
       <use xlink:href="#m7a9b12d4b8" x="122.736663" y="457.118125" style="stroke: #000000; stroke-width: 0.8"/>
      </g>
     </g>
     <g id="text_3">
      <!-- 0.4 -->
      <g transform="translate(114.785101 471.716562) scale(0.1 -0.1)">
       <defs>
        <path id="DejaVuSans-34" d="M 2419 4116 
L 825 1625 
L 2419 1625 
L 2419 4116 
z
M 2253 4666 
L 3047 4666 
L 3047 1625 
L 3713 1625 
L 3713 1100 
L 3047 1100 
L 3047 0 
L 2419 0 
L 2419 1100 
L 313 1100 
L 313 1709 
L 2253 4666 
z
" transform="scale(0.015625)"/>
       </defs>
       <use xlink:href="#DejaVuSans-30"/>
       <use xlink:href="#DejaVuSans-2e" transform="translate(63.623047 0)"/>
       <use xlink:href="#DejaVuSans-34" transform="translate(95.410156 0)"/>
      </g>
     </g>
    </g>
    <g id="xtick_4">
     <g id="line2d_4">
      <g>
       <use xlink:href="#m7a9b12d4b8" x="165.596765" y="457.118125" style="stroke: #000000; stroke-width: 0.8"/>
      </g>
     </g>
     <g id="text_4">
      <!-- 0.6 -->
      <g transform="translate(157.645203 471.716562) scale(0.1 -0.1)">
       <defs>
        <path id="DejaVuSans-36" d="M 2113 2584 
Q 1688 2584 1439 2293 
Q 1191 2003 1191 1497 
Q 1191 994 1439 701 
Q 1688 409 2113 409 
Q 2538 409 2786 701 
Q 3034 994 3034 1497 
Q 3034 2003 2786 2293 
Q 2538 2584 2113 2584 
z
M 3366 4563 
L 3366 3988 
Q 3128 4100 2886 4159 
Q 2644 4219 2406 4219 
Q 1781 4219 1451 3797 
Q 1122 3375 1075 2522 
Q 1259 2794 1537 2939 
Q 1816 3084 2150 3084 
Q 2853 3084 3261 2657 
Q 3669 2231 3669 1497 
Q 3669 778 3244 343 
Q 2819 -91 2113 -91 
Q 1303 -91 875 529 
Q 447 1150 447 2328 
Q 447 3434 972 4092 
Q 1497 4750 2381 4750 
Q 2619 4750 2861 4703 
Q 3103 4656 3366 4563 
z
" transform="scale(0.015625)"/>
       </defs>
       <use xlink:href="#DejaVuSans-30"/>
       <use xlink:href="#DejaVuSans-2e" transform="translate(63.623047 0)"/>
       <use xlink:href="#DejaVuSans-36" transform="translate(95.410156 0)"/>
      </g>
     </g>
    </g>
    <g id="xtick_5">
     <g id="line2d_5">
      <g>
       <use xlink:href="#m7a9b12d4b8" x="208.456867" y="457.118125" style="stroke: #000000; stroke-width: 0.8"/>
      </g>
     </g>
     <g id="text_5">
      <!-- 0.8 -->
      <g transform="translate(200.505305 471.716562) scale(0.1 -0.1)">
       <defs>
        <path id="DejaVuSans-38" d="M 2034 2216 
Q 1584 2216 1326 1975 
Q 1069 1734 1069 1313 
Q 1069 891 1326 650 
Q 1584 409 2034 409 
Q 2484 409 2743 651 
Q 3003 894 3003 1313 
Q 3003 1734 2745 1975 
Q 2488 2216 2034 2216 
z
M 1403 2484 
Q 997 2584 770 2862 
Q 544 3141 544 3541 
Q 544 4100 942 4425 
Q 1341 4750 2034 4750 
Q 2731 4750 3128 4425 
Q 3525 4100 3525 3541 
Q 3525 3141 3298 2862 
Q 3072 2584 2669 2484 
Q 3125 2378 3379 2068 
Q 3634 1759 3634 1313 
Q 3634 634 3220 271 
Q 2806 -91 2034 -91 
Q 1263 -91 848 271 
Q 434 634 434 1313 
Q 434 1759 690 2068 
Q 947 2378 1403 2484 
z
M 1172 3481 
Q 1172 3119 1398 2916 
Q 1625 2713 2034 2713 
Q 2441 2713 2670 2916 
Q 2900 3119 2900 3481 
Q 2900 3844 2670 4047 
Q 2441 4250 2034 4250 
Q 1625 4250 1398 4047 
Q 1172 3844 1172 3481 
z
" transform="scale(0.015625)"/>
       </defs>
       <use xlink:href="#DejaVuSans-30"/>
       <use xlink:href="#DejaVuSans-2e" transform="translate(63.623047 0)"/>
       <use xlink:href="#DejaVuSans-38" transform="translate(95.410156 0)"/>
      </g>
     </g>
    </g>
    <g id="xtick_6">
     <g id="line2d_6">
      <g>
       <use xlink:href="#m7a9b12d4b8" x="251.316969" y="457.118125" style="stroke: #000000; stroke-width: 0.8"/>
      </g>
     </g>
     <g id="text_6">
      <!-- 1.0 -->
      <g transform="translate(243.365407 471.716562) scale(0.1 -0.1)">
       <defs>
        <path id="DejaVuSans-31" d="M 794 531 
L 1825 531 
L 1825 4091 
L 703 3866 
L 703 4441 
L 1819 4666 
L 2450 4666 
L 2450 531 
L 3481 531 
L 3481 0 
L 794 0 
L 794 531 
z
" transform="scale(0.015625)"/>
       </defs>
       <use xlink:href="#DejaVuSans-31"/>
       <use xlink:href="#DejaVuSans-2e" transform="translate(63.623047 0)"/>
       <use xlink:href="#DejaVuSans-30" transform="translate(95.410156 0)"/>
      </g>
     </g>
    </g>
    <g id="xtick_7">
     <g id="line2d_7">
      <g>
       <use xlink:href="#m7a9b12d4b8" x="294.177071" y="457.118125" style="stroke: #000000; stroke-width: 0.8"/>
      </g>
     </g>
     <g id="text_7">
      <!-- 1.2 -->
      <g transform="translate(286.225509 471.716562) scale(0.1 -0.1)">
       <use xlink:href="#DejaVuSans-31"/>
       <use xlink:href="#DejaVuSans-2e" transform="translate(63.623047 0)"/>
       <use xlink:href="#DejaVuSans-32" transform="translate(95.410156 0)"/>
      </g>
     </g>
    </g>
    <g id="xtick_8">
     <g id="line2d_8">
      <g>
       <use xlink:href="#m7a9b12d4b8" x="337.037173" y="457.118125" style="stroke: #000000; stroke-width: 0.8"/>
      </g>
     </g>
     <g id="text_8">
      <!-- 1.4 -->
      <g transform="translate(329.085611 471.716562) scale(0.1 -0.1)">
       <use xlink:href="#DejaVuSans-31"/>
       <use xlink:href="#DejaVuSans-2e" transform="translate(63.623047 0)"/>
       <use xlink:href="#DejaVuSans-34" transform="translate(95.410156 0)"/>
      </g>
     </g>
    </g>
    <g id="text_9">
     <!-- GDP per Capita -->
     <g transform="translate(159.855469 485.394687) scale(0.1 -0.1)">
      <defs>
       <path id="DejaVuSans-47" d="M 3809 666 
L 3809 1919 
L 2778 1919 
L 2778 2438 
L 4434 2438 
L 4434 434 
Q 4069 175 3628 42 
Q 3188 -91 2688 -91 
Q 1594 -91 976 548 
Q 359 1188 359 2328 
Q 359 3472 976 4111 
Q 1594 4750 2688 4750 
Q 3144 4750 3555 4637 
Q 3966 4525 4313 4306 
L 4313 3634 
Q 3963 3931 3569 4081 
Q 3175 4231 2741 4231 
Q 1884 4231 1454 3753 
Q 1025 3275 1025 2328 
Q 1025 1384 1454 906 
Q 1884 428 2741 428 
Q 3075 428 3337 486 
Q 3600 544 3809 666 
z
" transform="scale(0.015625)"/>
       <path id="DejaVuSans-44" d="M 1259 4147 
L 1259 519 
L 2022 519 
Q 2988 519 3436 956 
Q 3884 1394 3884 2338 
Q 3884 3275 3436 3711 
Q 2988 4147 2022 4147 
L 1259 4147 
z
M 628 4666 
L 1925 4666 
Q 3281 4666 3915 4102 
Q 4550 3538 4550 2338 
Q 4550 1131 3912 565 
Q 3275 0 1925 0 
L 628 0 
L 628 4666 
z
" transform="scale(0.015625)"/>
       <path id="DejaVuSans-50" d="M 1259 4147 
L 1259 2394 
L 2053 2394 
Q 2494 2394 2734 2622 
Q 2975 2850 2975 3272 
Q 2975 3691 2734 3919 
Q 2494 4147 2053 4147 
L 1259 4147 
z
M 628 4666 
L 2053 4666 
Q 2838 4666 3239 4311 
Q 3641 3956 3641 3272 
Q 3641 2581 3239 2228 
Q 2838 1875 2053 1875 
L 1259 1875 
L 1259 0 
L 628 0 
L 628 4666 
z
" transform="scale(0.015625)"/>
       <path id="DejaVuSans-20" transform="scale(0.015625)"/>
       <path id="DejaVuSans-70" d="M 1159 525 
L 1159 -1331 
L 581 -1331 
L 581 3500 
L 1159 3500 
L 1159 2969 
Q 1341 3281 1617 3432 
Q 1894 3584 2278 3584 
Q 2916 3584 3314 3078 
Q 3713 2572 3713 1747 
Q 3713 922 3314 415 
Q 2916 -91 2278 -91 
Q 1894 -91 1617 61 
Q 1341 213 1159 525 
z
M 3116 1747 
Q 3116 2381 2855 2742 
Q 2594 3103 2138 3103 
Q 1681 3103 1420 2742 
Q 1159 2381 1159 1747 
Q 1159 1113 1420 752 
Q 1681 391 2138 391 
Q 2594 391 2855 752 
Q 3116 1113 3116 1747 
z
" transform="scale(0.015625)"/>
       <path id="DejaVuSans-65" d="M 3597 1894 
L 3597 1613 
L 953 1613 
Q 991 1019 1311 708 
Q 1631 397 2203 397 
Q 2534 397 2845 478 
Q 3156 559 3463 722 
L 3463 178 
Q 3153 47 2828 -22 
Q 2503 -91 2169 -91 
Q 1331 -91 842 396 
Q 353 884 353 1716 
Q 353 2575 817 3079 
Q 1281 3584 2069 3584 
Q 2775 3584 3186 3129 
Q 3597 2675 3597 1894 
z
M 3022 2063 
Q 3016 2534 2758 2815 
Q 2500 3097 2075 3097 
Q 1594 3097 1305 2825 
Q 1016 2553 972 2059 
L 3022 2063 
z
" transform="scale(0.015625)"/>
       <path id="DejaVuSans-72" d="M 2631 2963 
Q 2534 3019 2420 3045 
Q 2306 3072 2169 3072 
Q 1681 3072 1420 2755 
Q 1159 2438 1159 1844 
L 1159 0 
L 581 0 
L 581 3500 
L 1159 3500 
L 1159 2956 
Q 1341 3275 1631 3429 
Q 1922 3584 2338 3584 
Q 2397 3584 2469 3576 
Q 2541 3569 2628 3553 
L 2631 2963 
z
" transform="scale(0.015625)"/>
       <path id="DejaVuSans-43" d="M 4122 4306 
L 4122 3641 
Q 3803 3938 3442 4084 
Q 3081 4231 2675 4231 
Q 1875 4231 1450 3742 
Q 1025 3253 1025 2328 
Q 1025 1406 1450 917 
Q 1875 428 2675 428 
Q 3081 428 3442 575 
Q 3803 722 4122 1019 
L 4122 359 
Q 3791 134 3420 21 
Q 3050 -91 2638 -91 
Q 1578 -91 968 557 
Q 359 1206 359 2328 
Q 359 3453 968 4101 
Q 1578 4750 2638 4750 
Q 3056 4750 3426 4639 
Q 3797 4528 4122 4306 
z
" transform="scale(0.015625)"/>
       <path id="DejaVuSans-61" d="M 2194 1759 
Q 1497 1759 1228 1600 
Q 959 1441 959 1056 
Q 959 750 1161 570 
Q 1363 391 1709 391 
Q 2188 391 2477 730 
Q 2766 1069 2766 1631 
L 2766 1759 
L 2194 1759 
z
M 3341 1997 
L 3341 0 
L 2766 0 
L 2766 531 
Q 2569 213 2275 61 
Q 1981 -91 1556 -91 
Q 1019 -91 701 211 
Q 384 513 384 1019 
Q 384 1609 779 1909 
Q 1175 2209 1959 2209 
L 2766 2209 
L 2766 2266 
Q 2766 2663 2505 2880 
Q 2244 3097 1772 3097 
Q 1472 3097 1187 3025 
Q 903 2953 641 2809 
L 641 3341 
Q 956 3463 1253 3523 
Q 1550 3584 1831 3584 
Q 2591 3584 2966 3190 
Q 3341 2797 3341 1997 
z
" transform="scale(0.015625)"/>
       <path id="DejaVuSans-69" d="M 603 3500 
L 1178 3500 
L 1178 0 
L 603 0 
L 603 3500 
z
M 603 4863 
L 1178 4863 
L 1178 4134 
L 603 4134 
L 603 4863 
z
" transform="scale(0.015625)"/>
       <path id="DejaVuSans-74" d="M 1172 4494 
L 1172 3500 
L 2356 3500 
L 2356 3053 
L 1172 3053 
L 1172 1153 
Q 1172 725 1289 603 
Q 1406 481 1766 481 
L 2356 481 
L 2356 0 
L 1766 0 
Q 1100 0 847 248 
Q 594 497 594 1153 
L 594 3053 
L 172 3053 
L 172 3500 
L 594 3500 
L 594 4494 
L 1172 4494 
z
" transform="scale(0.015625)"/>
      </defs>
      <use xlink:href="#DejaVuSans-47"/>
      <use xlink:href="#DejaVuSans-44" transform="translate(77.490234 0)"/>
      <use xlink:href="#DejaVuSans-50" transform="translate(154.492188 0)"/>
      <use xlink:href="#DejaVuSans-20" transform="translate(214.794922 0)"/>
      <use xlink:href="#DejaVuSans-70" transform="translate(246.582031 0)"/>
      <use xlink:href="#DejaVuSans-65" transform="translate(310.058594 0)"/>
      <use xlink:href="#DejaVuSans-72" transform="translate(371.582031 0)"/>
      <use xlink:href="#DejaVuSans-20" transform="translate(412.695312 0)"/>
      <use xlink:href="#DejaVuSans-43" transform="translate(444.482422 0)"/>
      <use xlink:href="#DejaVuSans-61" transform="translate(514.306641 0)"/>
      <use xlink:href="#DejaVuSans-70" transform="translate(575.585938 0)"/>
      <use xlink:href="#DejaVuSans-69" transform="translate(639.0625 0)"/>
      <use xlink:href="#DejaVuSans-74" transform="translate(666.845703 0)"/>
      <use xlink:href="#DejaVuSans-61" transform="translate(706.054688 0)"/>
     </g>
    </g>
   </g>
   <g id="matplotlib.axis_2">
    <g id="ytick_1">
     <g id="line2d_9">
      <defs>
       <path id="mcd5af5e5c4" d="M 0 0 
L -3.5 0 
" style="stroke: #000000; stroke-width: 0.8"/>
      </defs>
      <g>
       <use xlink:href="#mcd5af5e5c4" x="34.240625" y="429.228345" style="stroke: #000000; stroke-width: 0.8"/>
      </g>
     </g>
     <g id="text_10">
      <!-- 3 -->
      <g transform="translate(20.878125 433.027564) scale(0.1 -0.1)">
       <defs>
        <path id="DejaVuSans-33" d="M 2597 2516 
Q 3050 2419 3304 2112 
Q 3559 1806 3559 1356 
Q 3559 666 3084 287 
Q 2609 -91 1734 -91 
Q 1441 -91 1130 -33 
Q 819 25 488 141 
L 488 750 
Q 750 597 1062 519 
Q 1375 441 1716 441 
Q 2309 441 2620 675 
Q 2931 909 2931 1356 
Q 2931 1769 2642 2001 
Q 2353 2234 1838 2234 
L 1294 2234 
L 1294 2753 
L 1863 2753 
Q 2328 2753 2575 2939 
Q 2822 3125 2822 3475 
Q 2822 3834 2567 4026 
Q 2313 4219 1838 4219 
Q 1578 4219 1281 4162 
Q 984 4106 628 3988 
L 628 4550 
Q 988 4650 1302 4700 
Q 1616 4750 1894 4750 
Q 2613 4750 3031 4423 
Q 3450 4097 3450 3541 
Q 3450 3153 3228 2886 
Q 3006 2619 2597 2516 
z
" transform="scale(0.015625)"/>
       </defs>
       <use xlink:href="#DejaVuSans-33"/>
      </g>
     </g>
    </g>
    <g id="ytick_2">
     <g id="line2d_10">
      <g>
       <use xlink:href="#mcd5af5e5c4" x="34.240625" y="343.689993" style="stroke: #000000; stroke-width: 0.8"/>
      </g>
     </g>
     <g id="text_11">
      <!-- 4 -->
      <g transform="translate(20.878125 347.489211) scale(0.1 -0.1)">
       <use xlink:href="#DejaVuSans-34"/>
      </g>
     </g>
    </g>
    <g id="ytick_3">
     <g id="line2d_11">
      <g>
       <use xlink:href="#mcd5af5e5c4" x="34.240625" y="258.15164" style="stroke: #000000; stroke-width: 0.8"/>
      </g>
     </g>
     <g id="text_12">
      <!-- 5 -->
      <g transform="translate(20.878125 261.950859) scale(0.1 -0.1)">
       <defs>
        <path id="DejaVuSans-35" d="M 691 4666 
L 3169 4666 
L 3169 4134 
L 1269 4134 
L 1269 2991 
Q 1406 3038 1543 3061 
Q 1681 3084 1819 3084 
Q 2600 3084 3056 2656 
Q 3513 2228 3513 1497 
Q 3513 744 3044 326 
Q 2575 -91 1722 -91 
Q 1428 -91 1123 -41 
Q 819 9 494 109 
L 494 744 
Q 775 591 1075 516 
Q 1375 441 1709 441 
Q 2250 441 2565 725 
Q 2881 1009 2881 1497 
Q 2881 1984 2565 2268 
Q 2250 2553 1709 2553 
Q 1456 2553 1204 2497 
Q 953 2441 691 2322 
L 691 4666 
z
" transform="scale(0.015625)"/>
       </defs>
       <use xlink:href="#DejaVuSans-35"/>
      </g>
     </g>
    </g>
    <g id="ytick_4">
     <g id="line2d_12">
      <g>
       <use xlink:href="#mcd5af5e5c4" x="34.240625" y="172.613287" style="stroke: #000000; stroke-width: 0.8"/>
      </g>
     </g>
     <g id="text_13">
      <!-- 6 -->
      <g transform="translate(20.878125 176.412506) scale(0.1 -0.1)">
       <use xlink:href="#DejaVuSans-36"/>
      </g>
     </g>
    </g>
    <g id="ytick_5">
     <g id="line2d_13">
      <g>
       <use xlink:href="#mcd5af5e5c4" x="34.240625" y="87.074935" style="stroke: #000000; stroke-width: 0.8"/>
      </g>
     </g>
     <g id="text_14">
      <!-- 7 -->
      <g transform="translate(20.878125 90.874154) scale(0.1 -0.1)">
       <defs>
        <path id="DejaVuSans-37" d="M 525 4666 
L 3525 4666 
L 3525 4397 
L 1831 0 
L 1172 0 
L 2766 4134 
L 525 4134 
L 525 4666 
z
" transform="scale(0.015625)"/>
       </defs>
       <use xlink:href="#DejaVuSans-37"/>
      </g>
     </g>
    </g>
    <g id="text_15">
     <!-- Happiness Score -->
     <g transform="translate(14.798438 281.325937) rotate(-90) scale(0.1 -0.1)">
      <defs>
       <path id="DejaVuSans-48" d="M 628 4666 
L 1259 4666 
L 1259 2753 
L 3553 2753 
L 3553 4666 
L 4184 4666 
L 4184 0 
L 3553 0 
L 3553 2222 
L 1259 2222 
L 1259 0 
L 628 0 
L 628 4666 
z
" transform="scale(0.015625)"/>
       <path id="DejaVuSans-6e" d="M 3513 2113 
L 3513 0 
L 2938 0 
L 2938 2094 
Q 2938 2591 2744 2837 
Q 2550 3084 2163 3084 
Q 1697 3084 1428 2787 
Q 1159 2491 1159 1978 
L 1159 0 
L 581 0 
L 581 3500 
L 1159 3500 
L 1159 2956 
Q 1366 3272 1645 3428 
Q 1925 3584 2291 3584 
Q 2894 3584 3203 3211 
Q 3513 2838 3513 2113 
z
" transform="scale(0.015625)"/>
       <path id="DejaVuSans-73" d="M 2834 3397 
L 2834 2853 
Q 2591 2978 2328 3040 
Q 2066 3103 1784 3103 
Q 1356 3103 1142 2972 
Q 928 2841 928 2578 
Q 928 2378 1081 2264 
Q 1234 2150 1697 2047 
L 1894 2003 
Q 2506 1872 2764 1633 
Q 3022 1394 3022 966 
Q 3022 478 2636 193 
Q 2250 -91 1575 -91 
Q 1294 -91 989 -36 
Q 684 19 347 128 
L 347 722 
Q 666 556 975 473 
Q 1284 391 1588 391 
Q 1994 391 2212 530 
Q 2431 669 2431 922 
Q 2431 1156 2273 1281 
Q 2116 1406 1581 1522 
L 1381 1569 
Q 847 1681 609 1914 
Q 372 2147 372 2553 
Q 372 3047 722 3315 
Q 1072 3584 1716 3584 
Q 2034 3584 2315 3537 
Q 2597 3491 2834 3397 
z
" transform="scale(0.015625)"/>
       <path id="DejaVuSans-53" d="M 3425 4513 
L 3425 3897 
Q 3066 4069 2747 4153 
Q 2428 4238 2131 4238 
Q 1616 4238 1336 4038 
Q 1056 3838 1056 3469 
Q 1056 3159 1242 3001 
Q 1428 2844 1947 2747 
L 2328 2669 
Q 3034 2534 3370 2195 
Q 3706 1856 3706 1288 
Q 3706 609 3251 259 
Q 2797 -91 1919 -91 
Q 1588 -91 1214 -16 
Q 841 59 441 206 
L 441 856 
Q 825 641 1194 531 
Q 1563 422 1919 422 
Q 2459 422 2753 634 
Q 3047 847 3047 1241 
Q 3047 1584 2836 1778 
Q 2625 1972 2144 2069 
L 1759 2144 
Q 1053 2284 737 2584 
Q 422 2884 422 3419 
Q 422 4038 858 4394 
Q 1294 4750 2059 4750 
Q 2388 4750 2728 4690 
Q 3069 4631 3425 4513 
z
" transform="scale(0.015625)"/>
       <path id="DejaVuSans-63" d="M 3122 3366 
L 3122 2828 
Q 2878 2963 2633 3030 
Q 2388 3097 2138 3097 
Q 1578 3097 1268 2742 
Q 959 2388 959 1747 
Q 959 1106 1268 751 
Q 1578 397 2138 397 
Q 2388 397 2633 464 
Q 2878 531 3122 666 
L 3122 134 
Q 2881 22 2623 -34 
Q 2366 -91 2075 -91 
Q 1284 -91 818 406 
Q 353 903 353 1747 
Q 353 2603 823 3093 
Q 1294 3584 2113 3584 
Q 2378 3584 2631 3529 
Q 2884 3475 3122 3366 
z
" transform="scale(0.015625)"/>
       <path id="DejaVuSans-6f" d="M 1959 3097 
Q 1497 3097 1228 2736 
Q 959 2375 959 1747 
Q 959 1119 1226 758 
Q 1494 397 1959 397 
Q 2419 397 2687 759 
Q 2956 1122 2956 1747 
Q 2956 2369 2687 2733 
Q 2419 3097 1959 3097 
z
M 1959 3584 
Q 2709 3584 3137 3096 
Q 3566 2609 3566 1747 
Q 3566 888 3137 398 
Q 2709 -91 1959 -91 
Q 1206 -91 779 398 
Q 353 888 353 1747 
Q 353 2609 779 3096 
Q 1206 3584 1959 3584 
z
" transform="scale(0.015625)"/>
      </defs>
      <use xlink:href="#DejaVuSans-48"/>
      <use xlink:href="#DejaVuSans-61" transform="translate(75.195312 0)"/>
      <use xlink:href="#DejaVuSans-70" transform="translate(136.474609 0)"/>
      <use xlink:href="#DejaVuSans-70" transform="translate(199.951172 0)"/>
      <use xlink:href="#DejaVuSans-69" transform="translate(263.427734 0)"/>
      <use xlink:href="#DejaVuSans-6e" transform="translate(291.210938 0)"/>
      <use xlink:href="#DejaVuSans-65" transform="translate(354.589844 0)"/>
      <use xlink:href="#DejaVuSans-73" transform="translate(416.113281 0)"/>
      <use xlink:href="#DejaVuSans-73" transform="translate(468.212891 0)"/>
      <use xlink:href="#DejaVuSans-20" transform="translate(520.3125 0)"/>
      <use xlink:href="#DejaVuSans-53" transform="translate(552.099609 0)"/>
      <use xlink:href="#DejaVuSans-63" transform="translate(615.576172 0)"/>
      <use xlink:href="#DejaVuSans-6f" transform="translate(670.556641 0)"/>
      <use xlink:href="#DejaVuSans-72" transform="translate(731.738281 0)"/>
      <use xlink:href="#DejaVuSans-65" transform="translate(770.601562 0)"/>
     </g>
    </g>
   </g>
   <g id="line2d_14">
    <path d="M 49.148011 400.616767 
L 52.159605 397.886979 
L 55.171198 395.15719 
L 58.182791 392.427402 
L 61.194384 389.697614 
L 64.205977 386.967825 
L 67.217571 384.238037 
L 70.229164 381.508248 
L 73.240757 378.77846 
L 76.25235 376.048672 
L 79.263943 373.318883 
L 82.275537 370.589095 
L 85.28713 367.859307 
L 88.298723 365.129518 
L 91.310316 362.39973 
L 94.321909 359.669941 
L 97.333503 356.940153 
L 100.345096 354.210365 
L 103.356689 351.480576 
L 106.368282 348.750788 
L 109.379875 346.020999 
L 112.391469 343.291211 
L 115.403062 340.561423 
L 118.414655 337.831634 
L 121.426248 335.101846 
L 124.437841 332.372057 
L 127.449435 329.642269 
L 130.461028 326.912481 
L 133.472621 324.182692 
L 136.484214 321.452904 
L 139.495808 318.723116 
L 142.507401 315.993327 
L 145.518994 313.263539 
L 148.530587 310.53375 
L 151.54218 307.803962 
L 154.553774 305.074174 
L 157.565367 302.344385 
L 160.57696 299.614597 
L 163.588553 296.884808 
L 166.600146 294.15502 
L 169.61174 291.425232 
L 172.623333 288.695443 
L 175.634926 285.965655 
L 178.646519 283.235866 
L 181.658112 280.506078 
L 184.669706 277.77629 
L 187.681299 275.046501 
L 190.692892 272.316713 
L 193.704485 269.586924 
L 196.716078 266.857136 
L 199.727672 264.127348 
L 202.739265 261.397559 
L 205.750858 258.667771 
L 208.762451 255.937983 
L 211.774044 253.208194 
L 214.785638 250.478406 
L 217.797231 247.748617 
L 220.808824 245.018829 
L 223.820417 242.289041 
L 226.83201 239.559252 
L 229.843604 236.829464 
L 232.855197 234.099675 
L 235.86679 231.369887 
L 238.878383 228.640099 
L 241.889976 225.91031 
L 244.90157 223.180522 
L 247.913163 220.450733 
L 250.924756 217.720945 
L 253.936349 214.991157 
L 256.947942 212.261368 
L 259.959536 209.53158 
L 262.971129 206.801791 
L 265.982722 204.072003 
L 268.994315 201.342215 
L 272.005909 198.612426 
L 275.017502 195.882638 
L 278.029095 193.15285 
L 281.040688 190.423061 
L 284.052281 187.693273 
L 287.063875 184.963484 
L 290.075468 182.233696 
L 293.087061 179.503908 
L 296.098654 176.774119 
L 299.110247 174.044331 
L 302.121841 171.314542 
L 305.133434 168.584754 
L 308.145027 165.854966 
L 311.15662 163.125177 
L 314.168213 160.395389 
L 317.179807 157.6656 
L 320.1914 154.935812 
L 323.202993 152.206024 
L 326.214586 149.476235 
L 329.226179 146.746447 
L 332.237773 144.016659 
L 335.249366 141.28687 
L 338.260959 138.557082 
L 341.272552 135.827293 
L 344.284145 133.097505 
L 347.295739 130.367717 
" clip-path="url(#pa309da7af8)" style="fill: none; stroke: #ff0000; stroke-width: 2.25; stroke-linecap: square"/>
   </g>
   <g id="patch_3">
    <path d="M 34.240625 457.118125 
L 34.240625 22.318125 
" style="fill: none; stroke: #000000; stroke-width: 0.8; stroke-linejoin: miter; stroke-linecap: square"/>
   </g>
   <g id="patch_4">
    <path d="M 362.203125 457.118125 
L 362.203125 22.318125 
" style="fill: none; stroke: #000000; stroke-width: 0.8; stroke-linejoin: miter; stroke-linecap: square"/>
   </g>
   <g id="patch_5">
    <path d="M 34.240625 457.118125 
L 362.203125 457.118125 
" style="fill: none; stroke: #000000; stroke-width: 0.8; stroke-linejoin: miter; stroke-linecap: square"/>
   </g>
   <g id="patch_6">
    <path d="M 34.240625 22.318125 
L 362.203125 22.318125 
" style="fill: none; stroke: #000000; stroke-width: 0.8; stroke-linejoin: miter; stroke-linecap: square"/>
   </g>
   <g id="text_16">
    <!-- R = 0.61 -->
    <g transform="translate(50.63875 53.17625) scale(0.12 -0.12)">
     <defs>
      <path id="DejaVuSans-52" d="M 2841 2188 
Q 3044 2119 3236 1894 
Q 3428 1669 3622 1275 
L 4263 0 
L 3584 0 
L 2988 1197 
Q 2756 1666 2539 1819 
Q 2322 1972 1947 1972 
L 1259 1972 
L 1259 0 
L 628 0 
L 628 4666 
L 2053 4666 
Q 2853 4666 3247 4331 
Q 3641 3997 3641 3322 
Q 3641 2881 3436 2590 
Q 3231 2300 2841 2188 
z
M 1259 4147 
L 1259 2491 
L 2053 2491 
Q 2509 2491 2742 2702 
Q 2975 2913 2975 3322 
Q 2975 3731 2742 3939 
Q 2509 4147 2053 4147 
L 1259 4147 
z
" transform="scale(0.015625)"/>
      <path id="DejaVuSans-b2" d="M 838 2444 
L 2163 2444 
L 2163 2088 
L 294 2088 
L 294 2431 
Q 400 2528 597 2703 
Q 1672 3656 1672 3950 
Q 1672 4156 1509 4282 
Q 1347 4409 1081 4409 
Q 919 4409 728 4354 
Q 538 4300 313 4191 
L 313 4575 
Q 553 4663 761 4706 
Q 969 4750 1147 4750 
Q 1600 4750 1872 4544 
Q 2144 4338 2144 4000 
Q 2144 3566 1109 2678 
Q 934 2528 838 2444 
z
" transform="scale(0.015625)"/>
      <path id="DejaVuSans-3d" d="M 678 2906 
L 4684 2906 
L 4684 2381 
L 678 2381 
L 678 2906 
z
M 678 1631 
L 4684 1631 
L 4684 1100 
L 678 1100 
L 678 1631 
z
" transform="scale(0.015625)"/>
     </defs>
     <use xlink:href="#DejaVuSans-52"/>
     <use xlink:href="#DejaVuSans-b2" transform="translate(69.482422 0)"/>
     <use xlink:href="#DejaVuSans-20" transform="translate(109.570312 0)"/>
     <use xlink:href="#DejaVuSans-3d" transform="translate(141.357422 0)"/>
     <use xlink:href="#DejaVuSans-20" transform="translate(225.146484 0)"/>
     <use xlink:href="#DejaVuSans-30" transform="translate(256.933594 0)"/>
     <use xlink:href="#DejaVuSans-2e" transform="translate(320.556641 0)"/>
     <use xlink:href="#DejaVuSans-36" transform="translate(352.34375 0)"/>
     <use xlink:href="#DejaVuSans-31" transform="translate(415.966797 0)"/>
    </g>
    <!--  y=2.27x + 3.21 -->
    <g transform="translate(50.63875 66.613625) scale(0.12 -0.12)">
     <defs>
      <path id="DejaVuSans-79" d="M 2059 -325 
Q 1816 -950 1584 -1140 
Q 1353 -1331 966 -1331 
L 506 -1331 
L 506 -850 
L 844 -850 
Q 1081 -850 1212 -737 
Q 1344 -625 1503 -206 
L 1606 56 
L 191 3500 
L 800 3500 
L 1894 763 
L 2988 3500 
L 3597 3500 
L 2059 -325 
z
" transform="scale(0.015625)"/>
      <path id="DejaVuSans-78" d="M 3513 3500 
L 2247 1797 
L 3578 0 
L 2900 0 
L 1881 1375 
L 863 0 
L 184 0 
L 1544 1831 
L 300 3500 
L 978 3500 
L 1906 2253 
L 2834 3500 
L 3513 3500 
z
" transform="scale(0.015625)"/>
      <path id="DejaVuSans-2b" d="M 2944 4013 
L 2944 2272 
L 4684 2272 
L 4684 1741 
L 2944 1741 
L 2944 0 
L 2419 0 
L 2419 1741 
L 678 1741 
L 678 2272 
L 2419 2272 
L 2419 4013 
L 2944 4013 
z
" transform="scale(0.015625)"/>
     </defs>
     <use xlink:href="#DejaVuSans-20"/>
     <use xlink:href="#DejaVuSans-79" transform="translate(31.787109 0)"/>
     <use xlink:href="#DejaVuSans-3d" transform="translate(90.966797 0)"/>
     <use xlink:href="#DejaVuSans-32" transform="translate(174.755859 0)"/>
     <use xlink:href="#DejaVuSans-2e" transform="translate(238.378906 0)"/>
     <use xlink:href="#DejaVuSans-32" transform="translate(270.166016 0)"/>
     <use xlink:href="#DejaVuSans-37" transform="translate(333.789062 0)"/>
     <use xlink:href="#DejaVuSans-78" transform="translate(397.412109 0)"/>
     <use xlink:href="#DejaVuSans-20" transform="translate(456.591797 0)"/>
     <use xlink:href="#DejaVuSans-2b" transform="translate(488.378906 0)"/>
     <use xlink:href="#DejaVuSans-20" transform="translate(572.167969 0)"/>
     <use xlink:href="#DejaVuSans-33" transform="translate(603.955078 0)"/>
     <use xlink:href="#DejaVuSans-2e" transform="translate(667.578125 0)"/>
     <use xlink:href="#DejaVuSans-32" transform="translate(699.365234 0)"/>
     <use xlink:href="#DejaVuSans-31" transform="translate(762.988281 0)"/>
    </g>
   </g>
   <g id="text_17">
    <!-- GDP per Capita &lt;1.45 -->
    <g transform="translate(131.888125 16.318125) scale(0.12 -0.12)">
     <defs>
      <path id="DejaVuSans-3c" d="M 4684 3150 
L 1459 2003 
L 4684 863 
L 4684 294 
L 678 1747 
L 678 2266 
L 4684 3719 
L 4684 3150 
z
" transform="scale(0.015625)"/>
     </defs>
     <use xlink:href="#DejaVuSans-47"/>
     <use xlink:href="#DejaVuSans-44" transform="translate(77.490234 0)"/>
     <use xlink:href="#DejaVuSans-50" transform="translate(154.492188 0)"/>
     <use xlink:href="#DejaVuSans-20" transform="translate(214.794922 0)"/>
     <use xlink:href="#DejaVuSans-70" transform="translate(246.582031 0)"/>
     <use xlink:href="#DejaVuSans-65" transform="translate(310.058594 0)"/>
     <use xlink:href="#DejaVuSans-72" transform="translate(371.582031 0)"/>
     <use xlink:href="#DejaVuSans-20" transform="translate(412.695312 0)"/>
     <use xlink:href="#DejaVuSans-43" transform="translate(444.482422 0)"/>
     <use xlink:href="#DejaVuSans-61" transform="translate(514.306641 0)"/>
     <use xlink:href="#DejaVuSans-70" transform="translate(575.585938 0)"/>
     <use xlink:href="#DejaVuSans-69" transform="translate(639.0625 0)"/>
     <use xlink:href="#DejaVuSans-74" transform="translate(666.845703 0)"/>
     <use xlink:href="#DejaVuSans-61" transform="translate(706.054688 0)"/>
     <use xlink:href="#DejaVuSans-20" transform="translate(767.333984 0)"/>
     <use xlink:href="#DejaVuSans-3c" transform="translate(799.121094 0)"/>
     <use xlink:href="#DejaVuSans-31" transform="translate(882.910156 0)"/>
     <use xlink:href="#DejaVuSans-2e" transform="translate(946.533203 0)"/>
     <use xlink:href="#DejaVuSans-34" transform="translate(978.320312 0)"/>
     <use xlink:href="#DejaVuSans-35" transform="translate(1041.943359 0)"/>
    </g>
   </g>
  </g>
  <g id="axes_2">
   <g id="patch_7">
    <path d="M 376.503125 457.118125 
L 704.465625 457.118125 
L 704.465625 22.318125 
L 376.503125 22.318125 
z
" style="fill: #ffffff"/>
   </g>
   <g id="PathCollection_2">
    <g clip-path="url(#p0569654237)">
     <use xlink:href="#mb35ae04fef" x="452.772055" y="43.535913" style="fill: #1f77b4; fill-opacity: 0.5; stroke: #ffffff; stroke-opacity: 0.5; stroke-width: 0.48"/>
     <use xlink:href="#mb35ae04fef" x="588.48513" y="98.109382" style="fill: #1f77b4; fill-opacity: 0.5; stroke: #ffffff; stroke-opacity: 0.5; stroke-width: 0.48"/>
     <use xlink:href="#mb35ae04fef" x="391.410511" y="76.895871" style="fill: #1f77b4; fill-opacity: 0.5; stroke: #ffffff; stroke-opacity: 0.5; stroke-width: 0.48"/>
     <use xlink:href="#mb35ae04fef" x="392.550823" y="62.183274" style="fill: #1f77b4; fill-opacity: 0.5; stroke: #ffffff; stroke-opacity: 0.5; stroke-width: 0.48"/>
     <use xlink:href="#mb35ae04fef" x="492.73082" y="44.476835" style="fill: #1f77b4; fill-opacity: 0.5; stroke: #ffffff; stroke-opacity: 0.5; stroke-width: 0.48"/>
     <use xlink:href="#mb35ae04fef" x="402.813631" y="58.077433" style="fill: #1f77b4; fill-opacity: 0.5; stroke: #ffffff; stroke-opacity: 0.5; stroke-width: 0.48"/>
     <use xlink:href="#mb35ae04fef" x="417.749326" y="95.030002" style="fill: #1f77b4; fill-opacity: 0.5; stroke: #ffffff; stroke-opacity: 0.5; stroke-width: 0.48"/>
     <use xlink:href="#mb35ae04fef" x="524.388433" y="152.169621" style="fill: #1f77b4; fill-opacity: 0.5; stroke: #ffffff; stroke-opacity: 0.5; stroke-width: 0.48"/>
     <use xlink:href="#mb35ae04fef" x="422.629542" y="140.194252" style="fill: #1f77b4; fill-opacity: 0.5; stroke: #ffffff; stroke-opacity: 0.5; stroke-width: 0.48"/>
     <use xlink:href="#mb35ae04fef" x="489.60493" y="123.599811" style="fill: #1f77b4; fill-opacity: 0.5; stroke: #ffffff; stroke-opacity: 0.5; stroke-width: 0.48"/>
     <use xlink:href="#mb35ae04fef" x="689.558239" y="140.536405" style="fill: #1f77b4; fill-opacity: 0.5; stroke: #ffffff; stroke-opacity: 0.5; stroke-width: 0.48"/>
     <use xlink:href="#mb35ae04fef" x="547.043162" y="109.400445" style="fill: #1f77b4; fill-opacity: 0.5; stroke: #ffffff; stroke-opacity: 0.5; stroke-width: 0.48"/>
     <use xlink:href="#mb35ae04fef" x="439.510944" y="218.975074" style="fill: #1f77b4; fill-opacity: 0.5; stroke: #ffffff; stroke-opacity: 0.5; stroke-width: 0.48"/>
     <use xlink:href="#mb35ae04fef" x="437.326011" y="78.178946" style="fill: #1f77b4; fill-opacity: 0.5; stroke: #ffffff; stroke-opacity: 0.5; stroke-width: 0.48"/>
    </g>
   </g>
   <g id="FillBetweenPolyCollection_2">
    <path d="M 391.410511 60.623871 
L 391.410511 128.283486 
L 394.422105 128.345757 
L 397.433698 128.053022 
L 400.445291 127.859754 
L 403.456884 128.11249 
L 406.468477 128.078339 
L 409.480071 127.947861 
L 412.491664 127.644611 
L 415.503257 127.614064 
L 418.51485 127.955317 
L 421.526443 127.889724 
L 424.538037 127.817133 
L 427.54963 127.734552 
L 430.561223 127.921963 
L 433.572816 127.960763 
L 436.584409 128.355911 
L 439.596003 128.598469 
L 442.607596 128.497955 
L 445.619189 128.370327 
L 448.630782 127.973657 
L 451.642375 128.08947 
L 454.653969 128.163952 
L 457.665562 127.921235 
L 460.677155 127.807041 
L 463.688748 127.569226 
L 466.700341 127.58121 
L 469.711935 128.018226 
L 472.723528 128.352534 
L 475.735121 127.847207 
L 478.746714 127.947817 
L 481.758308 128.500973 
L 484.769901 128.777864 
L 487.781494 129.423773 
L 490.793087 129.881131 
L 493.80468 130.043977 
L 496.816274 130.456254 
L 499.827867 131.318664 
L 502.83946 131.611942 
L 505.851053 132.018974 
L 508.862646 132.07733 
L 511.87424 132.540825 
L 514.885833 133.020294 
L 517.897426 133.813068 
L 520.909019 134.494835 
L 523.920612 134.952107 
L 526.932206 135.91175 
L 529.943799 136.871394 
L 532.955392 137.920205 
L 535.966985 138.797726 
L 538.978578 139.098371 
L 541.990172 139.373994 
L 545.001765 140.063574 
L 548.013358 140.69004 
L 551.024951 141.376064 
L 554.036544 142.137139 
L 557.048138 142.739338 
L 560.059731 143.776046 
L 563.071324 144.866338 
L 566.082917 145.410986 
L 569.09451 145.967263 
L 572.106104 146.520073 
L 575.117697 147.057366 
L 578.12929 147.673518 
L 581.140883 148.223184 
L 584.152476 149.016798 
L 587.16407 150.055241 
L 590.175663 150.679461 
L 593.187256 151.111311 
L 596.198849 151.54316 
L 599.210442 151.97501 
L 602.222036 152.40686 
L 605.233629 152.838709 
L 608.245222 153.270559 
L 611.256815 153.719455 
L 614.268409 154.153662 
L 617.280002 154.689896 
L 620.291595 155.245619 
L 623.303188 155.801341 
L 626.314781 156.660958 
L 629.326375 157.672453 
L 632.337968 158.683948 
L 635.349561 159.695442 
L 638.361154 160.706937 
L 641.372747 161.718432 
L 644.384341 162.729927 
L 647.395934 163.741421 
L 650.407527 164.750288 
L 653.41912 165.74989 
L 656.430713 166.749492 
L 659.442307 167.749094 
L 662.4539 168.748696 
L 665.465493 169.579552 
L 668.477086 170.125521 
L 671.488679 170.671491 
L 674.500273 171.464822 
L 677.511866 172.489368 
L 680.523459 173.739593 
L 683.535052 175.027137 
L 686.546645 176.31468 
L 689.558239 177.602224 
L 689.558239 89.763093 
L 689.558239 89.763093 
L 686.546645 89.842842 
L 683.535052 89.922592 
L 680.523459 90.002341 
L 677.511866 90.08209 
L 674.500273 90.16184 
L 671.488679 90.241589 
L 668.477086 90.321338 
L 665.465493 90.391448 
L 662.4539 90.323363 
L 659.442307 90.633734 
L 656.430713 90.938414 
L 653.41912 91.243094 
L 650.407527 91.547774 
L 647.395934 91.852454 
L 644.384341 92.157134 
L 641.372747 92.280268 
L 638.361154 92.331475 
L 635.349561 92.388512 
L 632.337968 92.634076 
L 629.326375 93.222198 
L 626.314781 93.36526 
L 623.303188 93.367663 
L 620.291595 93.370066 
L 617.280002 93.37797 
L 614.268409 93.387808 
L 611.256815 93.552839 
L 608.245222 93.884841 
L 605.233629 94.216843 
L 602.222036 94.548846 
L 599.210442 94.880848 
L 596.198849 95.21285 
L 593.187256 95.544853 
L 590.175663 95.538347 
L 587.16407 95.328734 
L 584.152476 95.103513 
L 581.140883 94.858809 
L 578.12929 94.614104 
L 575.117697 94.121566 
L 572.106104 93.618633 
L 569.09451 93.410913 
L 566.082917 93.385046 
L 563.071324 93.409352 
L 560.059731 93.118745 
L 557.048138 92.739939 
L 554.036544 92.088937 
L 551.024951 91.562783 
L 548.013358 91.047801 
L 545.001765 90.767066 
L 541.990172 90.949132 
L 538.978578 90.815744 
L 535.966985 90.332008 
L 532.955392 89.818274 
L 529.943799 89.30295 
L 526.932206 88.730851 
L 523.920612 88.174259 
L 520.909019 87.743268 
L 517.897426 87.411574 
L 514.885833 86.938145 
L 511.87424 86.545111 
L 508.862646 85.95206 
L 505.851053 85.640687 
L 502.83946 85.021184 
L 499.827867 84.205998 
L 496.816274 83.588573 
L 493.80468 83.048148 
L 490.793087 82.723871 
L 487.781494 82.660724 
L 484.769901 82.879003 
L 481.758308 82.042791 
L 478.746714 81.697826 
L 475.735121 80.974635 
L 472.723528 80.247885 
L 469.711935 79.52989 
L 466.700341 78.813398 
L 463.688748 78.096906 
L 460.677155 77.418658 
L 457.665562 76.73936 
L 454.653969 76.02915 
L 451.642375 75.318052 
L 448.630782 74.60873 
L 445.619189 73.900004 
L 442.607596 73.191969 
L 439.596003 72.481638 
L 436.584409 71.819525 
L 433.572816 71.082547 
L 430.561223 70.579293 
L 427.54963 69.811099 
L 424.538037 68.986157 
L 421.526443 68.221942 
L 418.51485 67.511582 
L 415.503257 66.712634 
L 412.491664 65.870521 
L 409.480071 65.074773 
L 406.468477 64.350521 
L 403.456884 63.626269 
L 400.445291 62.902017 
L 397.433698 62.11533 
L 394.422105 61.307302 
L 391.410511 60.623871 
z
" clip-path="url(#p0569654237)" style="fill: #ff0000; fill-opacity: 0.15"/>
   </g>
   <g id="matplotlib.axis_3">
    <g id="xtick_9">
     <g id="line2d_15">
      <g>
       <use xlink:href="#m7a9b12d4b8" x="391.107491" y="457.118125" style="stroke: #000000; stroke-width: 0.8"/>
      </g>
     </g>
     <g id="text_18">
      <!-- 1.45 -->
      <g transform="translate(379.974679 471.716562) scale(0.1 -0.1)">
       <use xlink:href="#DejaVuSans-31"/>
       <use xlink:href="#DejaVuSans-2e" transform="translate(63.623047 0)"/>
       <use xlink:href="#DejaVuSans-34" transform="translate(95.410156 0)"/>
       <use xlink:href="#DejaVuSans-35" transform="translate(159.033203 0)"/>
      </g>
     </g>
    </g>
    <g id="xtick_10">
     <g id="line2d_16">
      <g>
       <use xlink:href="#m7a9b12d4b8" x="430.97854" y="457.118125" style="stroke: #000000; stroke-width: 0.8"/>
      </g>
     </g>
     <g id="text_19">
      <!-- 1.50 -->
      <g transform="translate(419.845728 471.716562) scale(0.1 -0.1)">
       <use xlink:href="#DejaVuSans-31"/>
       <use xlink:href="#DejaVuSans-2e" transform="translate(63.623047 0)"/>
       <use xlink:href="#DejaVuSans-35" transform="translate(95.410156 0)"/>
       <use xlink:href="#DejaVuSans-30" transform="translate(159.033203 0)"/>
      </g>
     </g>
    </g>
    <g id="xtick_11">
     <g id="line2d_17">
      <g>
       <use xlink:href="#m7a9b12d4b8" x="470.849589" y="457.118125" style="stroke: #000000; stroke-width: 0.8"/>
      </g>
     </g>
     <g id="text_20">
      <!-- 1.55 -->
      <g transform="translate(459.716776 471.716562) scale(0.1 -0.1)">
       <use xlink:href="#DejaVuSans-31"/>
       <use xlink:href="#DejaVuSans-2e" transform="translate(63.623047 0)"/>
       <use xlink:href="#DejaVuSans-35" transform="translate(95.410156 0)"/>
       <use xlink:href="#DejaVuSans-35" transform="translate(159.033203 0)"/>
      </g>
     </g>
    </g>
    <g id="xtick_12">
     <g id="line2d_18">
      <g>
       <use xlink:href="#m7a9b12d4b8" x="510.720637" y="457.118125" style="stroke: #000000; stroke-width: 0.8"/>
      </g>
     </g>
     <g id="text_21">
      <!-- 1.60 -->
      <g transform="translate(499.587825 471.716562) scale(0.1 -0.1)">
       <use xlink:href="#DejaVuSans-31"/>
       <use xlink:href="#DejaVuSans-2e" transform="translate(63.623047 0)"/>
       <use xlink:href="#DejaVuSans-36" transform="translate(95.410156 0)"/>
       <use xlink:href="#DejaVuSans-30" transform="translate(159.033203 0)"/>
      </g>
     </g>
    </g>
    <g id="xtick_13">
     <g id="line2d_19">
      <g>
       <use xlink:href="#m7a9b12d4b8" x="550.591686" y="457.118125" style="stroke: #000000; stroke-width: 0.8"/>
      </g>
     </g>
     <g id="text_22">
      <!-- 1.65 -->
      <g transform="translate(539.458873 471.716562) scale(0.1 -0.1)">
       <use xlink:href="#DejaVuSans-31"/>
       <use xlink:href="#DejaVuSans-2e" transform="translate(63.623047 0)"/>
       <use xlink:href="#DejaVuSans-36" transform="translate(95.410156 0)"/>
       <use xlink:href="#DejaVuSans-35" transform="translate(159.033203 0)"/>
      </g>
     </g>
    </g>
    <g id="xtick_14">
     <g id="line2d_20">
      <g>
       <use xlink:href="#m7a9b12d4b8" x="590.462734" y="457.118125" style="stroke: #000000; stroke-width: 0.8"/>
      </g>
     </g>
     <g id="text_23">
      <!-- 1.70 -->
      <g transform="translate(579.329922 471.716562) scale(0.1 -0.1)">
       <use xlink:href="#DejaVuSans-31"/>
       <use xlink:href="#DejaVuSans-2e" transform="translate(63.623047 0)"/>
       <use xlink:href="#DejaVuSans-37" transform="translate(95.410156 0)"/>
       <use xlink:href="#DejaVuSans-30" transform="translate(159.033203 0)"/>
      </g>
     </g>
    </g>
    <g id="xtick_15">
     <g id="line2d_21">
      <g>
       <use xlink:href="#m7a9b12d4b8" x="630.333783" y="457.118125" style="stroke: #000000; stroke-width: 0.8"/>
      </g>
     </g>
     <g id="text_24">
      <!-- 1.75 -->
      <g transform="translate(619.200971 471.716562) scale(0.1 -0.1)">
       <use xlink:href="#DejaVuSans-31"/>
       <use xlink:href="#DejaVuSans-2e" transform="translate(63.623047 0)"/>
       <use xlink:href="#DejaVuSans-37" transform="translate(95.410156 0)"/>
       <use xlink:href="#DejaVuSans-35" transform="translate(159.033203 0)"/>
      </g>
     </g>
    </g>
    <g id="xtick_16">
     <g id="line2d_22">
      <g>
       <use xlink:href="#m7a9b12d4b8" x="670.204832" y="457.118125" style="stroke: #000000; stroke-width: 0.8"/>
      </g>
     </g>
     <g id="text_25">
      <!-- 1.80 -->
      <g transform="translate(659.072019 471.716562) scale(0.1 -0.1)">
       <use xlink:href="#DejaVuSans-31"/>
       <use xlink:href="#DejaVuSans-2e" transform="translate(63.623047 0)"/>
       <use xlink:href="#DejaVuSans-38" transform="translate(95.410156 0)"/>
       <use xlink:href="#DejaVuSans-30" transform="translate(159.033203 0)"/>
      </g>
     </g>
    </g>
    <g id="text_26">
     <!-- GDP per Capita -->
     <g transform="translate(502.117969 485.394687) scale(0.1 -0.1)">
      <use xlink:href="#DejaVuSans-47"/>
      <use xlink:href="#DejaVuSans-44" transform="translate(77.490234 0)"/>
      <use xlink:href="#DejaVuSans-50" transform="translate(154.492188 0)"/>
      <use xlink:href="#DejaVuSans-20" transform="translate(214.794922 0)"/>
      <use xlink:href="#DejaVuSans-70" transform="translate(246.582031 0)"/>
      <use xlink:href="#DejaVuSans-65" transform="translate(310.058594 0)"/>
      <use xlink:href="#DejaVuSans-72" transform="translate(371.582031 0)"/>
      <use xlink:href="#DejaVuSans-20" transform="translate(412.695312 0)"/>
      <use xlink:href="#DejaVuSans-43" transform="translate(444.482422 0)"/>
      <use xlink:href="#DejaVuSans-61" transform="translate(514.306641 0)"/>
      <use xlink:href="#DejaVuSans-70" transform="translate(575.585938 0)"/>
      <use xlink:href="#DejaVuSans-69" transform="translate(639.0625 0)"/>
      <use xlink:href="#DejaVuSans-74" transform="translate(666.845703 0)"/>
      <use xlink:href="#DejaVuSans-61" transform="translate(706.054688 0)"/>
     </g>
    </g>
   </g>
   <g id="matplotlib.axis_4">
    <g id="ytick_6">
     <g id="line2d_23">
      <g>
       <use xlink:href="#mcd5af5e5c4" x="376.503125" y="429.228345" style="stroke: #000000; stroke-width: 0.8"/>
      </g>
     </g>
    </g>
    <g id="ytick_7">
     <g id="line2d_24">
      <g>
       <use xlink:href="#mcd5af5e5c4" x="376.503125" y="343.689993" style="stroke: #000000; stroke-width: 0.8"/>
      </g>
     </g>
    </g>
    <g id="ytick_8">
     <g id="line2d_25">
      <g>
       <use xlink:href="#mcd5af5e5c4" x="376.503125" y="258.15164" style="stroke: #000000; stroke-width: 0.8"/>
      </g>
     </g>
    </g>
    <g id="ytick_9">
     <g id="line2d_26">
      <g>
       <use xlink:href="#mcd5af5e5c4" x="376.503125" y="172.613287" style="stroke: #000000; stroke-width: 0.8"/>
      </g>
     </g>
    </g>
    <g id="ytick_10">
     <g id="line2d_27">
      <g>
       <use xlink:href="#mcd5af5e5c4" x="376.503125" y="87.074935" style="stroke: #000000; stroke-width: 0.8"/>
      </g>
     </g>
    </g>
   </g>
   <g id="line2d_28">
    <path d="M 391.410511 89.259035 
L 394.422105 89.736716 
L 397.433698 90.214397 
L 400.445291 90.692077 
L 403.456884 91.169758 
L 406.468477 91.647439 
L 409.480071 92.12512 
L 412.491664 92.602801 
L 415.503257 93.080481 
L 418.51485 93.558162 
L 421.526443 94.035843 
L 424.538037 94.513524 
L 427.54963 94.991205 
L 430.561223 95.468885 
L 433.572816 95.946566 
L 436.584409 96.424247 
L 439.596003 96.901928 
L 442.607596 97.379609 
L 445.619189 97.85729 
L 448.630782 98.33497 
L 451.642375 98.812651 
L 454.653969 99.290332 
L 457.665562 99.768013 
L 460.677155 100.245694 
L 463.688748 100.723374 
L 466.700341 101.201055 
L 469.711935 101.678736 
L 472.723528 102.156417 
L 475.735121 102.634098 
L 478.746714 103.111778 
L 481.758308 103.589459 
L 484.769901 104.06714 
L 487.781494 104.544821 
L 490.793087 105.022502 
L 493.80468 105.500182 
L 496.816274 105.977863 
L 499.827867 106.455544 
L 502.83946 106.933225 
L 505.851053 107.410906 
L 508.862646 107.888587 
L 511.87424 108.366267 
L 514.885833 108.843948 
L 517.897426 109.321629 
L 520.909019 109.79931 
L 523.920612 110.276991 
L 526.932206 110.754671 
L 529.943799 111.232352 
L 532.955392 111.710033 
L 535.966985 112.187714 
L 538.978578 112.665395 
L 541.990172 113.143075 
L 545.001765 113.620756 
L 548.013358 114.098437 
L 551.024951 114.576118 
L 554.036544 115.053799 
L 557.048138 115.531479 
L 560.059731 116.00916 
L 563.071324 116.486841 
L 566.082917 116.964522 
L 569.09451 117.442203 
L 572.106104 117.919883 
L 575.117697 118.397564 
L 578.12929 118.875245 
L 581.140883 119.352926 
L 584.152476 119.830607 
L 587.16407 120.308288 
L 590.175663 120.785968 
L 593.187256 121.263649 
L 596.198849 121.74133 
L 599.210442 122.219011 
L 602.222036 122.696692 
L 605.233629 123.174372 
L 608.245222 123.652053 
L 611.256815 124.129734 
L 614.268409 124.607415 
L 617.280002 125.085096 
L 620.291595 125.562776 
L 623.303188 126.040457 
L 626.314781 126.518138 
L 629.326375 126.995819 
L 632.337968 127.4735 
L 635.349561 127.95118 
L 638.361154 128.428861 
L 641.372747 128.906542 
L 644.384341 129.384223 
L 647.395934 129.861904 
L 650.407527 130.339584 
L 653.41912 130.817265 
L 656.430713 131.294946 
L 659.442307 131.772627 
L 662.4539 132.250308 
L 665.465493 132.727989 
L 668.477086 133.205669 
L 671.488679 133.68335 
L 674.500273 134.161031 
L 677.511866 134.638712 
L 680.523459 135.116393 
L 683.535052 135.594073 
L 686.546645 136.071754 
L 689.558239 136.549435 
" clip-path="url(#p0569654237)" style="fill: none; stroke: #ff0000; stroke-width: 2.25; stroke-linecap: square"/>
   </g>
   <g id="patch_8">
    <path d="M 376.503125 457.118125 
L 376.503125 22.318125 
" style="fill: none; stroke: #000000; stroke-width: 0.8; stroke-linejoin: miter; stroke-linecap: square"/>
   </g>
   <g id="patch_9">
    <path d="M 704.465625 457.118125 
L 704.465625 22.318125 
" style="fill: none; stroke: #000000; stroke-width: 0.8; stroke-linejoin: miter; stroke-linecap: square"/>
   </g>
   <g id="patch_10">
    <path d="M 376.503125 457.118125 
L 704.465625 457.118125 
" style="fill: none; stroke: #000000; stroke-width: 0.8; stroke-linejoin: miter; stroke-linecap: square"/>
   </g>
   <g id="patch_11">
    <path d="M 376.503125 22.318125 
L 704.465625 22.318125 
" style="fill: none; stroke: #000000; stroke-width: 0.8; stroke-linejoin: miter; stroke-linecap: square"/>
   </g>
   <g id="text_27">
    <!-- R = 0.08 -->
    <g transform="translate(392.90125 53.17625) scale(0.12 -0.12)">
     <use xlink:href="#DejaVuSans-52"/>
     <use xlink:href="#DejaVuSans-b2" transform="translate(69.482422 0)"/>
     <use xlink:href="#DejaVuSans-20" transform="translate(109.570312 0)"/>
     <use xlink:href="#DejaVuSans-3d" transform="translate(141.357422 0)"/>
     <use xlink:href="#DejaVuSans-20" transform="translate(225.146484 0)"/>
     <use xlink:href="#DejaVuSans-30" transform="translate(256.933594 0)"/>
     <use xlink:href="#DejaVuSans-2e" transform="translate(320.556641 0)"/>
     <use xlink:href="#DejaVuSans-30" transform="translate(352.34375 0)"/>
     <use xlink:href="#DejaVuSans-38" transform="translate(415.966797 0)"/>
    </g>
    <!--  y=-1.48x + 9.12 -->
    <g transform="translate(392.90125 66.613625) scale(0.12 -0.12)">
     <defs>
      <path id="DejaVuSans-2d" d="M 313 2009 
L 1997 2009 
L 1997 1497 
L 313 1497 
L 313 2009 
z
" transform="scale(0.015625)"/>
      <path id="DejaVuSans-39" d="M 703 97 
L 703 672 
Q 941 559 1184 500 
Q 1428 441 1663 441 
Q 2288 441 2617 861 
Q 2947 1281 2994 2138 
Q 2813 1869 2534 1725 
Q 2256 1581 1919 1581 
Q 1219 1581 811 2004 
Q 403 2428 403 3163 
Q 403 3881 828 4315 
Q 1253 4750 1959 4750 
Q 2769 4750 3195 4129 
Q 3622 3509 3622 2328 
Q 3622 1225 3098 567 
Q 2575 -91 1691 -91 
Q 1453 -91 1209 -44 
Q 966 3 703 97 
z
M 1959 2075 
Q 2384 2075 2632 2365 
Q 2881 2656 2881 3163 
Q 2881 3666 2632 3958 
Q 2384 4250 1959 4250 
Q 1534 4250 1286 3958 
Q 1038 3666 1038 3163 
Q 1038 2656 1286 2365 
Q 1534 2075 1959 2075 
z
" transform="scale(0.015625)"/>
     </defs>
     <use xlink:href="#DejaVuSans-20"/>
     <use xlink:href="#DejaVuSans-79" transform="translate(31.787109 0)"/>
     <use xlink:href="#DejaVuSans-3d" transform="translate(90.966797 0)"/>
     <use xlink:href="#DejaVuSans-2d" transform="translate(174.755859 0)"/>
     <use xlink:href="#DejaVuSans-31" transform="translate(210.839844 0)"/>
     <use xlink:href="#DejaVuSans-2e" transform="translate(274.462891 0)"/>
     <use xlink:href="#DejaVuSans-34" transform="translate(306.25 0)"/>
     <use xlink:href="#DejaVuSans-38" transform="translate(369.873047 0)"/>
     <use xlink:href="#DejaVuSans-78" transform="translate(433.496094 0)"/>
     <use xlink:href="#DejaVuSans-20" transform="translate(492.675781 0)"/>
     <use xlink:href="#DejaVuSans-2b" transform="translate(524.462891 0)"/>
     <use xlink:href="#DejaVuSans-20" transform="translate(608.251953 0)"/>
     <use xlink:href="#DejaVuSans-39" transform="translate(640.039062 0)"/>
     <use xlink:href="#DejaVuSans-2e" transform="translate(703.662109 0)"/>
     <use xlink:href="#DejaVuSans-31" transform="translate(735.449219 0)"/>
     <use xlink:href="#DejaVuSans-32" transform="translate(799.072266 0)"/>
    </g>
   </g>
   <g id="text_28">
    <!-- GDP per Capita &gt;=1.45 -->
    <g transform="translate(469.122812 16.318125) scale(0.12 -0.12)">
     <defs>
      <path id="DejaVuSans-3e" d="M 678 3150 
L 678 3719 
L 4684 2266 
L 4684 1747 
L 678 294 
L 678 863 
L 3897 2003 
L 678 3150 
z
" transform="scale(0.015625)"/>
     </defs>
     <use xlink:href="#DejaVuSans-47"/>
     <use xlink:href="#DejaVuSans-44" transform="translate(77.490234 0)"/>
     <use xlink:href="#DejaVuSans-50" transform="translate(154.492188 0)"/>
     <use xlink:href="#DejaVuSans-20" transform="translate(214.794922 0)"/>
     <use xlink:href="#DejaVuSans-70" transform="translate(246.582031 0)"/>
     <use xlink:href="#DejaVuSans-65" transform="translate(310.058594 0)"/>
     <use xlink:href="#DejaVuSans-72" transform="translate(371.582031 0)"/>
     <use xlink:href="#DejaVuSans-20" transform="translate(412.695312 0)"/>
     <use xlink:href="#DejaVuSans-43" transform="translate(444.482422 0)"/>
     <use xlink:href="#DejaVuSans-61" transform="translate(514.306641 0)"/>
     <use xlink:href="#DejaVuSans-70" transform="translate(575.585938 0)"/>
     <use xlink:href="#DejaVuSans-69" transform="translate(639.0625 0)"/>
     <use xlink:href="#DejaVuSans-74" transform="translate(666.845703 0)"/>
     <use xlink:href="#DejaVuSans-61" transform="translate(706.054688 0)"/>
     <use xlink:href="#DejaVuSans-20" transform="translate(767.333984 0)"/>
     <use xlink:href="#DejaVuSans-3e" transform="translate(799.121094 0)"/>
     <use xlink:href="#DejaVuSans-3d" transform="translate(882.910156 0)"/>
     <use xlink:href="#DejaVuSans-31" transform="translate(966.699219 0)"/>
     <use xlink:href="#DejaVuSans-2e" transform="translate(1030.322266 0)"/>
     <use xlink:href="#DejaVuSans-34" transform="translate(1062.109375 0)"/>
     <use xlink:href="#DejaVuSans-35" transform="translate(1125.732422 0)"/>
    </g>
   </g>
  </g>
 </g>
 <defs>
  <clipPath id="pa309da7af8">
   <rect x="34.240625" y="22.318125" width="327.9625" height="434.8"/>
  </clipPath>
  <clipPath id="p0569654237">
   <rect x="376.503125" y="22.318125" width="327.9625" height="434.8"/>
  </clipPath>
 </defs>
</svg>
